<svg width="145" height="119" fill="none" xmlns="http://www.w3.org/2000/svg"><g opacity=".61"><g opacity=".61"><path opacity=".41" d="M1.691 86.24c-.959-1.144-1.005-2.887-.1-3.892.902-1.005 3.038-1.59 3.998-.446.959 1.144-.404 2.78-.732 4.213-.455 1.998-2.206 1.269-3.166.125Z" fill="#FF9455"/></g><g opacity=".61"><path opacity=".41" d="M143.646 69.341c1.201 1.066 1.447 3.087.552 4.513-.894 1.428-3.215 2.716-4.415 1.65-1.2-1.065.137-3.36.342-5.124.283-2.46 2.321-2.102 3.521-1.038Z" fill="#FF9455"/></g><g opacity=".61"><path opacity=".41" d="M74.374 16.498c1.279-1.621 3.85-2.084 5.744-1.035 1.893 1.051 3.708 3.945 2.43 5.566-1.28 1.622-4.315.064-6.59-.072-3.174-.19-2.863-2.838-1.584-4.459Z" fill="#FF9455"/></g><g opacity=".61"><path opacity=".28" d="M10.198 109.884c-1.365-8.074.823-14.96 1.369-22.877.517-7.495-1.72-13.798-2.962-20.936-1.105-6.354-.737-13.55.65-19.793 1.893-8.524 6.253-16.418 12.536-21.23 9.789-7.498 22.843-6.615 33.656-1.458 4.53 2.16 8.916 5.034 13.767 5.762 7.073 1.06 13.96-2.568 20.85-4.744 9.382-2.963 19.679-3.182 28.531 1.494 10.034 5.302 17.169 17.27 16.336 30.451-.377 5.973-2.309 11.867-1.626 17.801.694 6.017 3.699 11.052 5.289 16.72 1.464 5.21 2.031 12.071 1.177 18.394a9.883 9.883 0 0 1-9.791 8.56H19.917c-4.746 0-8.9-3.371-9.704-8.06l-.015-.084Z" fill="#FF9455"/></g><g opacity=".61"><g opacity=".66"><path opacity=".47" d="M121.11 78.404c-.474-5.78-2.747-11.57-6.685-15.707-6.133-6.447-15.415-8.072-23.547-6.582-3.408.625-6.785 1.73-10.275 1.382-5.087-.507-9.569-3.987-14.2-6.538-6.306-3.472-13.534-5.341-20.238-3.83a18.805 18.805 0 0 0-14.575 16.77c-.336 3.89 3.087 10.744 2.006 14.431-1.096 3.74-9.097 15.195-8.9 23.907.168 7.426 1.54 10.474 3.566 13.963a3.658 3.658 0 0 0 3.16 1.828h80.369a3.641 3.641 0 0 0 3.465-2.507c1.115-3.426 1.646-6.669.114-11.408-1.517-4.69 2.605-8.552 4.199-12.918 1.419-3.884 1.887-8.558 1.541-12.791Z" fill="#FF9455"/></g></g></g><path d="M60.219 49.701c-5.931 10.746-19.43 14.638-30.152 8.693-10.72-5.945-14.604-19.475-8.673-30.22 5.932-10.745 19.43-14.638 30.152-8.692 10.721 5.944 14.603 19.474 8.673 30.22Z" fill="#F9B361"/><path d="M56.65 47.722c-4.84 8.77-15.858 11.946-24.608 7.094-8.75-4.852-11.918-15.894-7.078-24.663 4.841-8.77 15.857-11.945 24.607-7.094s11.918 15.893 7.079 24.663Z" fill="#fff"/><path d="M47.565 26.632a.49.49 0 0 1-.191-.666l1.122-2.035a.49.49 0 1 1 .856.473L48.23 26.44a.488.488 0 0 1-.664.191ZM32.453 54.136a.49.49 0 0 1-.192-.666l1.123-2.035a.489.489 0 1 1 .856.474l-1.123 2.035a.489.489 0 0 1-.664.192Zm20.632-8.425a.485.485 0 0 1 .664-.191l2.03 1.125a.49.49 0 0 1-.472.857l-2.03-1.126a.488.488 0 0 1-.192-.665ZM25.642 30.564a.491.491 0 0 1 .666-.19l2.03 1.125a.49.49 0 0 1-.474.856l-2.03-1.126a.49.49 0 0 1-.192-.665Zm29.225 4.288a.491.491 0 0 1 .334-.605l1.136-.327a.487.487 0 0 1 .62.524.49.49 0 0 1-.35.416l-1.136.328a.488.488 0 0 1-.604-.336Zm-30.215 8.774a.491.491 0 0 1 .335-.605l1.405-.405a.488.488 0 0 1 .562.706.488.488 0 0 1-.292.234l-1.406.406a.487.487 0 0 1-.604-.336Zm20.224 9.416a.487.487 0 0 1 .604.335l.326 1.138a.492.492 0 0 1-.523.645.488.488 0 0 1-.415-.374l-.327-1.139a.49.49 0 0 1 .335-.605Zm-8.755-30.283a.488.488 0 0 1 .605.335l.404 1.407a.49.49 0 0 1-.709.577.489.489 0 0 1-.23-.306l-.404-1.407a.49.49 0 0 1 .334-.606Zm4.806 16.117a.539.539 0 0 1-.667-.373l-2.569-9.021a.543.543 0 0 1 .58-.685.538.538 0 0 1 .457.388l2.57 9.021a.54.54 0 0 1-.37.67Z" fill="#FD4932"/><path d="M40.52 39.414a.543.543 0 0 1 .37-.67l7.522-2.15a.539.539 0 0 1 .62.782.54.54 0 0 1-.324.258l-7.521 2.15a.538.538 0 0 1-.667-.37Z" fill="#FD4932"/><path d="M42.518 39.886a1.956 1.956 0 0 1-2.657.767 1.96 1.96 0 0 1-.765-2.664 1.959 1.959 0 0 1 1.93-.999 1.952 1.952 0 0 1 1.66 1.406 1.963 1.963 0 0 1-.168 1.49Z" fill="#F9B361"/><path d="M96.179 35.926a76.294 76.294 0 0 0 2.914 3.248 74.174 74.174 0 0 1-2.73-6.532c-1.117-.578-2.823-1.157-4.06-1.901 1.145 1.804 2.535 3.598 3.876 5.185Z" fill="#4D5DDA"/><path d="M99.093 39.175c.72.763 1.458 1.508 2.214 2.235-.226-2.29-.52-4.966-.78-7.678a9.782 9.782 0 0 1-4.164-1.09 74.2 74.2 0 0 0 2.73 6.533Z" fill="#4D5DDA"/><path d="M101.307 41.41s2.468-2.337 5.127-5.484c1.34-1.587 2.73-3.381 3.875-5.185-3.038 1.678-6.428 3.123-9.782 2.991.26 2.712.554 5.389.78 7.678Zm-9.004-10.669c1.237.744 2.943 1.323 4.06 1.901-.86-2.392-1.624-5.3-1.953-8.27-1.478-.148-3.245-.23-4.693-.347 0 1.96 1.083 4.348 2.586 6.716Z" fill="#4D5DDA"/><path d="M89.717 24.025c1.448.117 3.215.2 4.693.347-.417-3.761-.14-7.619 1.522-10.642a11.625 11.625 0 0 0-2.821 2.081 11.58 11.58 0 0 0-3.394 8.214Zm6.645 8.618c1.74.899 3.537 1.188 5.33 1.073.057-2.956.017-6.24-.16-9.403-2.45.09-4.85.164-7.122.059.329 2.97 1.093 5.878 1.953 8.27Z" fill="#4D5DDA"/><path d="M101.692 33.717c2.969-.191 5.931-1.492 8.617-2.976 1.504-2.368 2.587-4.756 2.587-6.716-3.405-.056-7.316.14-11.364.288.177 3.162.217 6.448.16 9.404Zm-7.282-9.345c2.271.105 4.672.03 7.122-.06-.225-4.278-.506-8.501-.225-11.904a11.518 11.518 0 0 0-5.375 1.322c-1.661 3.023-1.94 6.88-1.522 10.642Z" fill="#4D5DDA"/><path d="M101.532 24.313c4.048-.149 7.959-.344 11.364-.288 0-3.208-1.297-6.112-3.394-8.214a11.558 11.558 0 0 0-8.195-3.403c-.281 3.403 0 7.627.225 11.905Z" fill="#4D5DDA"/><path opacity=".3" d="M101.307 12.409c-.314 0-.622.022-.929.047 5.966.475 10.661 5.468 10.661 11.569 0 5.312-7.927 13.726-10.661 16.472.568.57.929.912.929.912s11.589-10.969 11.589-17.384c0-6.416-5.189-11.616-11.589-11.616Z" fill="#fff"/><path d="M101.049 16.972c-3.608 0-6.544 2.942-6.544 6.56 0 3.616 2.936 6.56 6.544 6.56 3.609 0 6.545-2.944 6.545-6.56 0-3.618-2.936-6.56-6.545-6.56Z" fill="#fff"/><path d="M133.67 104.771c0 7.151-5.784 12.95-12.92 12.95s-12.92-5.799-12.92-12.95c0-7.152 5.784-12.95 12.92-12.95s12.92 5.798 12.92 12.95Z" fill="#390028"/><path d="M128.055 105.066c0 4.044-3.27 7.323-7.305 7.323s-7.305-3.279-7.305-7.323c0-4.043 3.27-7.322 7.305-7.322s7.305 3.279 7.305 7.322Z" fill="#fff"/><path d="M102.784 86.339h17.443c7.257 0 13.138 5.895 13.138 13.167h-30.581V86.34Z" fill="#F94A3D"/><path d="M115.181 77.475 104.537 62.96a11.962 11.962 0 0 1-1.977-4.246l-.051-.21 3.278-.802a.463.463 0 0 0 .34-.56l-1.823-7.48a1.765 1.765 0 0 0-.795-1.087 1.753 1.753 0 0 0-1.329-.206l-3.222.788a4.946 4.946 0 0 0-3.058 2.245 4.966 4.966 0 0 0-.578 3.754c.01.042.025.08.036.121h-.007l3.153 12.936 2.528-3.927v36.172l5.047 4.609 9.808-15.62a10.996 10.996 0 0 0 1.421-6.091 10.993 10.993 0 0 0-2.127-5.881Z" fill="#FF7664"/><path d="m102.555 58.696-.046-.191 3.278-.803a.46.46 0 0 0 .347-.38.457.457 0 0 0-.008-.18l-1.822-7.479a1.758 1.758 0 0 0-2.125-1.294l-3.221.788a4.943 4.943 0 0 0-3.058 2.245 4.968 4.968 0 0 0-.578 3.753c.01.042.025.081.036.123l-.006-.002.812 3.336 6.241-.05c.052.05.099.086.15.134Z" fill="#FF5E4D"/><path d="M66.876 109.601h31.348c5.017 0 9.085-4.077 9.085-9.108v-.987H62.132v5.34c0 1.261.5 2.471 1.39 3.362a4.738 4.738 0 0 0 3.354 1.393Zm10.802-10.095L26.03 94.964a.779.779 0 0 1-.71-.83c.046-.695.128-1.706.244-2.313C27 84.324 33.578 78.658 41.476 78.658h33.075c1.372 0 2.218 1.505 1.506 2.68l-1.987 3.289a10.545 10.545 0 0 0 1.695 13.032l1.913 1.847Z" fill="#FF7664"/><path d="M77.678 78.658H41.476c-7.695 0-14.138 5.378-15.79 12.589a16.292 16.292 0 0 0-.412 3.65l27.222 2.129s-4.137-1.765-4.137-11.238c0-7.238 10.062-7.308 10.062-7.308" fill="#F94A3D"/><path opacity=".25" d="M58.298 78.658H40.223c-4.85 0-13.649 5.378-14.69 12.589-.174 1.209-.26 2.429-.26 3.65l16.447 1.287s-2.659-.789-1.898-10.396c.571-7.216 6.341-7.308 6.341-7.308" fill="#390028"/><path d="M24.575 80.89h20.958c1.357 0 2.456-1.002 2.456-2.235v-24.45c0-1.236-1.099-2.236-2.456-2.236H24.507c-3.393 0-6.145 2.501-6.145 5.586v17.687c0 3.118 2.782 5.647 6.213 5.647Z" fill="#FF7664"/><path d="M24.575 80.89h20.958c1.357 0 2.456-2.871 2.456-4.105 0 0-29.574-.705-29.477-.306.621 2.523 3.1 4.41 6.063 4.41ZM47.99 59.663v-5.46c0-1.234-1.1-2.234-2.458-2.234H24.506c-3.392 0-6.143 2.5-6.143 5.585v2.234l29.627-.125Z" fill="#FF5E4D"/><path d="M47.58 77.223H18.6a.437.437 0 0 1-.299-.742.437.437 0 0 1 .298-.134h28.982a.436.436 0 0 1 .454.438.439.439 0 0 1-.454.438Zm0-16.797H18.6a.437.437 0 0 1-.299-.742.437.437 0 0 1 .298-.135h28.982a.437.437 0 0 1 .298.742.437.437 0 0 1-.298.135Z" fill="#FF4628"/><path d="M78.784 82.733c.076.657-.41 1.234-1.03 1.228l-24.66-.275c-2.288-.024-4.352-1.627-5.201-4.04l-2.004-5.689c-.916-2.601.662-5.421 3.126-5.583l23.603-.686c2.498-.073 4.66 2.018 4.983 4.819l1.183 10.226Z" fill="#F94A3D"/><path opacity=".22" d="m72.62 67.688-23.605.686a3.302 3.302 0 0 0-1.677.591l1.607 4.565c.849 2.412 2.912 4.014 5.202 4.04l24.07.268-.617-5.33c-.323-2.803-2.484-4.892-4.98-4.82Z" fill="#390028"/><path d="M109.425 78.98a5.897 5.897 0 0 0-.357-.966l-8.035-16.108a6.715 6.715 0 0 0-3.338 3.604 6.735 6.735 0 0 0 .003 4.918l1.824 4.64a22.878 22.878 0 0 1 1.583 8.36v4.68c0 6.295-5.091 11.398-11.373 11.398H77.678v-.027l-34.34-3.026v8.101h52.184c3.287 0 7.568-3.069 9.999-7.553 2.384-4.395 3.605-9.787 4.141-12.757.316-1.75.258-3.557-.237-5.265Z" fill="#FF5E4D"/><path d="M107.015 52.421c.649 2.663.098 5.084-1.23 5.41-1.329.325-2.931-1.57-3.58-4.232-.648-2.663-.097-5.085 1.23-5.41 1.329-.325 2.931 1.57 3.58 4.232Z" fill="#FFD98B"/><path opacity=".39" d="M105.5 50.629c.373 1.535.055 2.931-.711 3.119-.765.187-1.689-.905-2.063-2.44-.374-1.536-.056-2.93.71-3.119.765-.187 1.689.905 2.064 2.44Z" fill="#fff"/><path d="m96.207 55.72-9.328 2.283a.663.663 0 0 1-.803-.49l-.245-1.007a.664.664 0 0 1 .487-.804l9.328-2.283a.664.664 0 0 1 .802.489l.247 1.008a.666.666 0 0 1-.488.804Z" fill="#390028"/><path d="m97.202 57-1.301.32a1.02 1.02 0 0 1-1.069-.392 1.028 1.028 0 0 1-.168-.363l-.669-2.743 2.296-.562.911 3.74Zm-10.11 1.56a1.327 1.327 0 0 1-1.607-.978l-.14-.575a1.335 1.335 0 0 1 .976-1.61 1.326 1.326 0 0 1 1.606.978l.14.575a1.336 1.336 0 0 1-.976 1.61Zm-35.11 46.211c0 7.151-5.785 12.95-12.92 12.95-7.137 0-12.922-5.799-12.922-12.95 0-7.152 5.785-12.95 12.922-12.95 7.135 0 12.92 5.798 12.92 12.95Z" fill="#390028"/><path d="M46.367 105.066c0 4.044-3.272 7.323-7.306 7.323-4.035 0-7.305-3.279-7.305-7.323 0-4.043 3.27-7.322 7.305-7.322 4.034 0 7.306 3.279 7.306 7.322Z" fill="#fff"/><path d="M59.52 108.147H42.694c-2.006 0-3.633-1.533-3.633-3.422 0-1.89 1.627-3.421 3.633-3.421H59.52c2.007 0 3.633 1.531 3.633 3.421 0 1.889-1.626 3.422-3.633 3.422Z" fill="#F94A3D"/><path d="M43.198 104.751a3.833 3.833 0 0 1-2.36 3.538 3.818 3.818 0 0 1-5.209-2.792 3.84 3.84 0 0 1 1.626-3.931 3.805 3.805 0 0 1 3.585-.354 3.823 3.823 0 0 1 2.068 2.073c.192.465.29.963.29 1.466Zm81.367.255c0 1.016-.403 1.99-1.12 2.708a3.815 3.815 0 0 1-5.403 0 3.831 3.831 0 0 1-1.119-2.708c0-1.016.402-1.99 1.119-2.708a3.816 3.816 0 0 1 5.403 0 3.832 3.832 0 0 1 1.12 2.708Z" fill="#390028"/><path d="M96.002 50.992a2.212 2.212 0 0 0-.989-1.726l-1.564-1.02c-.682-.447-1.513-.479-2.158-.085l-9.671-1.908-8.212-10.767L67.77 44.3l7.596 9.01 12.857.076c1.482.713 3.138 1.636 3.573 1.653a2.636 2.636 0 0 0 1.842-.655 2.648 2.648 0 0 0 .888-1.746l.03-.32.298.537c.073.13.19.23.325.277.466.166.914-.175.892-.678l-.069-1.46Z" fill="#F9A06E"/><path d="m79.793 42.952-8.851 6.933-7.781-8.117 10.882-7.921 5.93 7.64c.354.454.274 1.11-.18 1.464Z" fill="#364CC9"/><path d="M75.692 16.396c-.06 1.52-1.285 2.706-2.738 2.649-1.45-.058-2.579-1.336-2.52-2.856.061-1.522 1.286-2.707 2.737-2.65 1.452.058 2.58 1.337 2.521 2.857Z" fill="#F94A3D"/><path d="M73.932 15.188c-.032-1.612-1.61-2.959-3.523-3.009l-3.892-.098c-1.915-.05-3.44 1.218-3.408 2.83l.156 7.803-1.303 8.452c-.169 1.098.681 2.142 1.897 2.33l3.014.468c1.216.188 2.34-.55 2.51-1.649l.666-4.318c.079-.009.157-.013.236-.025 2.191-.325 3.544-2.264 3.012-4.244l.485-6.528.15-2.012Z" fill="#FFAC79"/><path d="M71.108 24.985s.573-.176.915.3l-.915-.3Z" fill="#FFAC79"/><path d="M72.023 25.503a.22.22 0 0 1-.178-.09c-.242-.34-.656-.223-.675-.217a.22.22 0 0 1-.126-.42c.029-.008.729-.214 1.157.381a.22.22 0 0 1-.178.346Z" fill="#FF755F"/><path d="M69.16 18.75c.164.05.365.006.562-.024.196-.034.395-.065.568-.085.174-.02.375-.036.574-.046.198-.015.404-.02.55-.105.142-.08.182-.268-.019-.47-.191-.198-.651-.384-1.227-.32-.574.069-.974.353-1.108.588-.145.242-.058.415.1.461Z" fill="#390028"/><path d="M72.745 19.599c.008.394.335.71.729.703a.412.412 0 0 1 .423.409l.002.064a.91.91 0 0 1-.543.85.902.902 0 0 1-.346.074l-.693.015" fill="#FFAC79"/><path d="M72.317 21.933a.219.219 0 0 1-.21-.217.22.22 0 0 1 .205-.222l.693-.013a.687.687 0 0 0 .676-.701l-.002-.064a.199.199 0 0 0-.201-.195.941.941 0 0 1-.951-.919.22.22 0 0 1 .213-.223h.005a.22.22 0 0 1 .218.215.5.5 0 0 0 .498.489h.022a.634.634 0 0 1 .634.624l.001.062c.005.303-.106.589-.315.805-.208.217-.489.34-.788.345l-.694.013h-.004Z" fill="#FF755F"/><path d="M71.38 23.582s-1.484.23-1.56-.687l1.56.687Z" fill="#FFAC79"/><path d="M70.988 23.828c-.322 0-.755-.051-1.055-.288a.863.863 0 0 1-.33-.628.22.22 0 0 1 .118-.212.215.215 0 0 1 .24.03c.043.037.071.09.078.146.01.138.063.24.165.32.297.236.926.202 1.142.17a.219.219 0 0 1 .067.433 3 3 0 0 1-.425.03Z" fill="#FF755F"/><path opacity=".41" d="M66.069 26.331s1.057 1.918 3.945 1.74l-.298 1.61c-.15-.006-3.815-.012-3.647-3.35Z" fill="#FF755F"/><path d="m61.825 22.546 1.203 2.21 1.725-3.982c.222-.582-.858.516-1.136-.042l-.24-.482-.12-.015c-1.27-.168-2.144 1.244-1.432 2.31Z" fill="#390028"/><path d="M62.427 22.67c2.71.784 3.243-3.04 3.87-4.364.714-1.51 2.53-2.183 4.061-1.518 2.284.99 3.727.788 5.277.69l.197-2.387a5.69 5.69 0 0 0-1.322-4.141 5.665 5.665 0 0 0-3.857-1.992l-5.569-.465a5.66 5.66 0 0 0-4.132 1.325 5.686 5.686 0 0 0-1.987 3.866s.03 3.376.075 4.98c.098 3.45 3.268 3.972 3.387 4.006Z" fill="#F94A3D"/><path d="M75.832 15.091a5.69 5.69 0 0 0-1.322-4.141 5.665 5.665 0 0 0-3.857-1.992l-5.569-.465a5.64 5.64 0 0 0-4.734 1.927 5.633 5.633 0 0 1 3.9-1.147l5.57.465a5.66 5.66 0 0 1 3.858 1.992A5.686 5.686 0 0 1 75 15.872l-.138 1.657.771-.051.199-2.387Z" fill="#FF7664"/><path d="m75.677 17.701-4.634-.157a1.357 1.357 0 0 1-1.312-1.407l6.998.238-.013.353a1.01 1.01 0 0 1-1.04.973Z" fill="#390028"/><path d="M62.444 18.047a.805.805 0 0 0-.555.22.81.81 0 0 0-.258.568.818.818 0 0 0 .787.806.814.814 0 0 0 .84-.75.818.818 0 0 0-.786-.843l-.028-.001Zm0 2.288h-.05a1.471 1.471 0 0 1-1.419-1.523 1.466 1.466 0 0 1 .466-1.025 1.482 1.482 0 0 1 1.053-.397 1.471 1.471 0 0 1 1.42 1.523 1.477 1.477 0 0 1-1.47 1.422Z" fill="#fff"/><path d="M75.34 36.595a8.003 8.003 0 0 0-.462-1.337c-.902-1.98-2.674-3.26-4.51-3.848-1.704-.544-3.516-.584-5.287-.618-1.295-.026-2.57-.42-3.86-.318-2.611.204-5.35 1.93-6.253 4.46-.372 1.04-.499 2.151-.595 3.252-.554 6.415-2.992 17.911-3.257 24.343-.159 3.811 2.549 5.77 2.42 9.583l-.021-3.152 21.62 1.234.16-4.433a623.85 623.85 0 0 0 .35-15.07c.028-2.516.044-5.032.05-7.547.005-2.16.18-4.44-.354-6.548v-.001Z" fill="#4D5DDA"/><path opacity=".27" d="M65.888 54.766c-1.484-1.247-6.56-6.17-7.774-10.084l-.366.284-.063.5c.364 3.414 3.342 6.86 5.16 8.674.82.818 2 1.057 3.043.626Zm8.1-6.816.612-.562-7.387-7.762 6.776 8.324Z" fill="#353535"/><path d="m92.403 56.645-.697-1.935-.007.009-.104-.422a2.178 2.178 0 0 0-1.302-1.498l-1.737-.697c-.757-.303-1.578-.172-2.133.34l-.839-.006-8.983-.99-2.72-3.286-7.273 6.18 2.364 2.585a5.338 5.338 0 0 0 4.12 1.735l11.712-.396c1.49.397 3.06.886 3.455.823a2.638 2.638 0 0 0 1.679-1.003c.41-.537.6-1.212.53-1.885l-.034-.32.224.261-.113.154.831.962a.603.603 0 0 0 1.04-.234.614.614 0 0 0-.013-.377Z" fill="#FFAC79"/><path opacity=".41" d="m76.6 51.41-3.478.561s2.867-1.39 2.841-1.314c-.025.077.638.79.638.79" fill="#FF755F"/><path d="m85.988 64.534-.75-.029.008-.047-34.334-1.297-.09 4.11c-.134 6.139 4.56 11.162 11.453 10.709l19.15-.502-.939 19.387 7.018-.673 5.27-24.617c.088-3.832-2.963-6.998-6.786-7.04Z" fill="#390028"/><path d="M95.234 102.955a4.648 4.648 0 0 0-2.647-4.425 4.626 4.626 0 0 0-1.754-.44l-3.132-.156.151-3.053-7.352-.363-.377 7.693 7.351.362 7.76.382Z" fill="#4D5DDA"/><path d="m95.219 103.277-15.111-.744.053-1.115 15.111.744-.053 1.115Z" fill="#F7EEE6"/><path d="M88.966 96.996h-.017c-.165.015-.469.255-.833.883.744-.177 1.067-.402 1.119-.545.006-.022.03-.085-.071-.21-.09-.114-.16-.128-.198-.128Zm-.947 1.345a.38.38 0 0 1-.31-.158.39.39 0 0 1-.027-.426c.424-.761.838-1.165 1.23-1.197.155-.016.384.027.593.288.208.263.192.489.14.633-.129.368-.648.653-1.54.85a.445.445 0 0 1-.086.01Z" fill="#EAEAEA"/><path d="M85.754 97.707h.005-.005Zm.516-.271a.368.368 0 0 0-.16.03c-.028.013-.115.054-.139.265-.021.2.04.278.089.318.213.18.803.156 1.58-.066-.666-.401-1.118-.547-1.37-.547Zm.288 1.172c-.345 0-.604-.075-.782-.225-.132-.111-.282-.325-.238-.7.04-.374.231-.54.383-.613.4-.188 1.057.002 1.952.576a.421.421 0 0 1-.115.76c-.473.134-.873.202-1.2.202Z" fill="#EAEAEA"/><path d="M87.028 100.068a.219.219 0 0 1-.094-.417c.795-.38.743-1.462.742-1.472a.22.22 0 0 1 .207-.232c.12 0 .223.085.23.206.003.057.066 1.387-.991 1.894a.217.217 0 0 1-.094.021Zm-4.251-2.803a1.138 1.138 0 1 0 .382 2.21 1.133 1.133 0 0 0 .75-1.017 1.13 1.13 0 0 0-.648-1.084 1.12 1.12 0 0 0-.43-.107l-.054-.002Zm0 2.713a1.558 1.558 0 0 1-1.165-.518 1.57 1.57 0 0 1-.406-1.135 1.583 1.583 0 0 1 1.647-1.496 1.567 1.567 0 0 1 1.404 1.042 1.575 1.575 0 0 1-.398 1.672c-.292.278-.68.434-1.083.435Z" fill="#EAEAEA"/><path d="m82.803 45.795 2.606-.638c2.4-.587 4.773.69 5.3 2.854.528 2.163-.991 4.392-3.392 4.98l-1.763.431c-1.181.29-2.35-.34-2.61-1.405l-1.154-4.735c-.157-.646.297-1.311 1.013-1.487Z" fill="#390028"/><path d="M98.68 54.46a.435.435 0 0 1-.378-.22l-2.952-5.123a2.342 2.342 0 0 0-2.568-1.1l-4.48 1.097a.437.437 0 0 1-.465-.65.437.437 0 0 1 .258-.201l4.48-1.096a3.212 3.212 0 0 1 3.532 1.512l2.952 5.123a.44.44 0 0 1-.379.657Z" fill="#390028"/><path d="M119.3 36.92c0 .375-.308.68-.688.68a.679.679 0 0 1-.633-.418.69.69 0 0 1-.054-.262c0-.375.307-.68.687-.68.38 0 .688.305.688.68Zm7.183-20.835a.673.673 0 0 1-.203.483.683.683 0 0 1-.484.197.68.68 0 1 1 .262-1.309.682.682 0 0 1 .425.63ZM15.516 108.07a.68.68 0 0 1-.426.629.708.708 0 0 1-.523 0 .687.687 0 0 1-.426-.629.686.686 0 0 1 1.172-.483.69.69 0 0 1 .203.483Zm125.336-23.353c0 .376-.309.68-.688.68a.68.68 0 1 1 0-1.359c.379 0 .688.304.688.68ZM78.413 1.14c0 .375-.309.68-.687.68a.68.68 0 0 1-.688-.68c0-.375.307-.68.688-.68.378 0 .687.305.687.68ZM8.18 15.779c0 .375-.308.68-.688.68a.682.682 0 0 1-.688-.68c0-.375.308-.68.688-.68.38 0 .688.305.688.68Zm110.89 45.565c0 .376-.308.68-.687.68a.678.678 0 0 1-.635-.418.683.683 0 0 1 .635-.941c.379 0 .687.304.687.68Zm18.151-21.853a.342.342 0 0 1-.344.34.341.341 0 0 1-.242-.582.345.345 0 0 1 .586.242Zm6.19 16.492c0 .045-.009.09-.027.13a.33.33 0 0 1-.186.185.342.342 0 0 1-.474-.315.343.343 0 0 1 .474-.314.345.345 0 0 1 .213.314ZM19.071 88.546a.342.342 0 0 1-.345.34.34.34 0 0 1-.343-.34c0-.188.154-.34.343-.34.19 0 .344.153.344.34Zm-5.656-23.56a.494.494 0 0 1-.685.454.494.494 0 0 1-.309-.454c0-.272.223-.491.498-.491.273 0 .496.219.496.49Z" fill="#F9B361"/></svg>