<svg width="145" height="111" fill="none" xmlns="http://www.w3.org/2000/svg"><g opacity=".61"><g opacity=".61"><path opacity=".41" d="M1.58 78.546c-.96-1.144-1.005-2.886-.102-3.892.902-1.004 3.039-1.59 3.999-.446.96 1.144-.404 2.781-.732 4.213-.455 1.998-2.206 1.269-3.165.125Z" fill="#FF9455"/></g><g opacity=".61"><path opacity=".41" d="M143.535 61.648c1.199 1.066 1.446 3.086.552 4.513-.896 1.428-3.216 2.715-4.416 1.65-1.2-1.065.138-3.36.342-5.124.284-2.46 2.321-2.104 3.522-1.038Z" fill="#FF9455"/></g><g opacity=".61"><path opacity=".41" d="M74.262 8.805c1.279-1.621 3.85-2.084 5.744-1.035 1.893 1.05 3.708 3.945 2.43 5.566-1.278 1.62-4.315.064-6.59-.072-3.174-.19-2.863-2.839-1.584-4.46Z" fill="#FF9455"/></g><g opacity=".61"><path opacity=".28" d="M10.086 102.19c-1.366-8.073.823-14.96 1.368-22.877.517-7.494-1.72-13.797-2.961-20.936-1.105-6.354-.737-13.549.65-19.793 1.893-8.524 6.253-16.418 12.535-21.23 9.79-7.498 22.845-6.615 33.658-1.457 4.529 2.16 8.916 5.034 13.766 5.762 7.074 1.06 13.96-2.568 20.85-4.745 9.381-2.962 19.679-3.182 28.53 1.494 10.036 5.302 17.171 17.27 16.337 30.452-.377 5.972-2.309 11.867-1.626 17.8.694 6.017 3.699 11.053 5.291 16.72 1.462 5.211 2.029 12.072 1.174 18.395a9.88 9.88 0 0 1-9.789 8.559H19.805c-4.747 0-8.9-3.371-9.704-8.058l-.015-.086Z" fill="#FF9455"/></g><g opacity=".61"><g opacity=".66"><path opacity=".47" d="M120.997 70.71c-.472-5.78-2.746-11.569-6.683-15.706-6.134-6.447-15.416-8.072-23.548-6.582-3.408.624-6.786 1.73-10.275 1.381-5.087-.506-9.568-3.986-14.2-6.538-6.306-3.472-13.533-5.34-20.238-3.83a18.805 18.805 0 0 0-14.576 16.77c-.335 3.89 3.088 10.745 2.007 14.432-1.096 3.74-9.097 15.194-8.9 23.906.168 7.427 1.542 10.475 3.566 13.963a3.65 3.65 0 0 0 3.16 1.828h80.369a3.636 3.636 0 0 0 2.138-.691 3.65 3.65 0 0 0 1.327-1.816c1.115-3.426 1.647-6.669.114-11.407-1.517-4.69 2.605-8.553 4.199-12.919 1.418-3.885 1.887-8.557 1.54-12.79Z" fill="#FF9455"/></g></g></g><path d="M59.95 72.402a1.31 1.31 0 0 1-1.31-1.27l-1.896-55.129c-.024-.675-1.144-.82-3.34-.862l-.587-.014a1.308 1.308 0 0 1-1.19-.844 1.316 1.316 0 0 1-.086-.505 1.302 1.302 0 0 1 1.348-1.28l.565.013c2.167.042 5.795.112 5.912 3.4l1.896 55.13a1.316 1.316 0 0 1-1.265 1.36h-.047Z" fill="#4D5DDA"/><path d="m42.263 92.928 31.725.231a1.841 1.841 0 0 0 1.85-1.696l4.9-60.127-44.23-.322 4.033 60.288a1.744 1.744 0 0 0 1.722 1.626Z" fill="#4D5DDA"/><path d="m37.973 52.918.969 14.487h38.857l1.18-14.487H37.973Z" fill="#F8F8EE"/><path d="m36.508 31.014 44.23.322-.029.365-39.66-.29L45.082 91.7a1.742 1.742 0 0 0 .672 1.253l-3.49-.025a1.737 1.737 0 0 1-1.723-1.626l-4.033-60.29v.002Z" fill="#364CC9"/><path opacity=".46" d="m80.341 35.45-43.59-.317.2 2.144 43.222.172.168-1.999Z" fill="#390028"/><path d="m36.254 30.962.301 4.494h44.098l.34-4.168-44.739-.326Z" fill="#F8F8EE"/><path d="M104.163 43.626H83.517a2.707 2.707 0 0 0-2.506 1.679c-.136.33-.206.683-.206 1.04v2.887a2.722 2.722 0 0 0 1.674 2.511c.329.137.682.207 1.038.207h20.646a2.71 2.71 0 0 0 2.711-2.718v-2.887a2.71 2.71 0 0 0-2.711-2.719ZM70.505 57.1l7.68 40.126h30.843l7.798-40.361-46.321.235Z" fill="#F94A3D"/><path opacity=".11" d="m116.819 56.901.006-.035-46.32.234 7.68 40.127h6.88L77.381 57.1l39.437-.199Z" fill="#390028"/><path d="M80.746 49.576h26.128l9.951 7.582H70.388l10.3-7.4" fill="#FF7664"/><path d="M87.565 83.773c-4.538-3.203-5.627-9.486-2.431-14.034 3.195-4.549 9.463-5.64 14.001-2.438 4.539 3.202 5.627 9.485 2.433 14.034-3.196 4.548-9.465 5.64-14.003 2.438Zm13.242-18.851c-5.85-4.127-13.93-2.721-18.047 3.141-4.118 5.864-2.715 13.962 3.134 18.088 5.85 4.128 13.93 2.722 18.048-3.141 4.117-5.863 2.713-13.961-3.135-18.088Z" fill="#F9B361"/><path d="M87.817 83.414c4.335 3.058 10.344 2.012 13.393-2.332 3.051-4.344 2.007-10.366-2.327-13.423-4.333-3.056-10.342-2.012-13.392 2.331a9.579 9.579 0 0 0-1.61 7.196 9.587 9.587 0 0 0 3.936 6.228Zm5.519 2.629c-2.086 0-4.191-.62-6.023-1.913a10.43 10.43 0 0 1-4.294-6.795 10.466 10.466 0 0 1 1.756-7.85c3.33-4.737 9.883-5.879 14.612-2.543 4.728 3.336 5.867 9.906 2.539 14.645a10.477 10.477 0 0 1-8.59 4.456Zm.041-23.053c-.72 0-1.444.062-2.168.188a12.415 12.415 0 0 0-8.091 5.137 12.475 12.475 0 0 0-2.098 9.368 12.475 12.475 0 0 0 5.127 8.11 12.415 12.415 0 0 0 9.345 2.103 12.415 12.415 0 0 0 8.091-5.138c3.972-5.657 2.614-13.497-3.029-17.478a12.405 12.405 0 0 0-7.177-2.29Zm-.055 25.97c-2.751 0-5.434-.857-7.68-2.45a13.34 13.34 0 0 1-5.484-8.677 13.359 13.359 0 0 1 2.244-10.022 13.314 13.314 0 0 1 8.657-5.497 13.29 13.29 0 0 1 10 2.25c6.037 4.259 7.489 12.647 3.24 18.698a13.288 13.288 0 0 1-8.657 5.497c-.766.133-1.542.2-2.32.2Z" fill="#FF7664"/><path d="M94.458 79.403a.61.61 0 0 1-.85.147l-4.116-2.903a.612.612 0 0 1-.147-.852l2.899-4.125a.607.607 0 0 1 .848-.148l4.117 2.905a.61.61 0 0 1 .147.85l-2.898 4.126Zm4.677-12.102c-4.538-3.202-10.806-2.11-14.001 2.438-3.196 4.548-2.107 10.831 2.431 14.034 4.54 3.202 10.808 2.11 14.003-2.438 3.194-4.55 2.106-10.832-2.433-14.034Z" fill="#F9B361"/><path d="M92.742 71.849a.174.174 0 0 0-.141.073l-2.898 4.126a.173.173 0 0 0 .04.24l4.118 2.905a.174.174 0 0 0 .24-.042l2.897-4.126a.176.176 0 0 0 .005-.19.165.165 0 0 0-.047-.05l-4.116-2.904a.168.168 0 0 0-.098-.032Zm1.216 8.252c-.215 0-.425-.067-.601-.192l-4.117-2.904a1.05 1.05 0 0 1-.252-1.462l2.897-4.125a1.048 1.048 0 0 1 1.459-.254l4.117 2.905c.228.16.38.401.428.678.047.276-.014.554-.176.783l-2.898 4.126c-.203.29-.527.445-.857.445Zm-.594-14.194a9.6 9.6 0 0 0-7.873 4.084 9.58 9.58 0 0 0-1.61 7.194 9.587 9.587 0 0 0 3.936 6.23c4.335 3.057 10.344 2.011 13.393-2.333 3.051-4.344 2.007-10.365-2.327-13.423a9.546 9.546 0 0 0-5.519-1.752Zm-.028 20.136a10.41 10.41 0 0 1-6.023-1.913 10.427 10.427 0 0 1-4.294-6.795 10.462 10.462 0 0 1 1.757-7.849c3.329-4.738 9.882-5.88 14.611-2.543 4.728 3.335 5.867 9.905 2.539 14.644a10.482 10.482 0 0 1-8.59 4.456Z" fill="#FF7664"/><path d="m62.601 98.882-48.849.287a1.506 1.506 0 0 1-1.4-.926 1.517 1.517 0 0 1-.119-.578l-.007-1.2a1.515 1.515 0 0 1 1.501-1.523l48.85-.288a1.51 1.51 0 0 1 1.518 1.506l.007 1.2a1.515 1.515 0 0 1-1.5 1.522Z" fill="#470B1B"/><path d="m61.243 94.676-9.724.056a1.073 1.073 0 0 0-.538.144l-3.438 2.068a1.114 1.114 0 0 1-1.016.041l-4.313-2.09a1.086 1.086 0 0 0-.478-.105l-26.676.158c-.481.002-.873-.29-.875-.65l-.013-2.28c-.002-.361.386-.658.867-.66l46.183-.273c.48-.003.873.289.875.652l.013 2.278c.002.362-.387.658-.867.661Z" fill="#FFD98B"/><path d="m60.603 101.85-44.946.265a.654.654 0 0 1-.656-.649l-.009-1.833a.654.654 0 0 1 .647-.657l44.946-.265a.65.65 0 0 1 .656.65l.01 1.833a.653.653 0 0 1-.648.656Z" fill="#F94A3D"/><path opacity=".74" d="m60.852 99.64-45.469.268a.391.391 0 0 1-.393-.39v-.148a.393.393 0 0 1 .388-.393l45.468-.268c.216 0 .391.173.393.389v.15a.391.391 0 0 1-.387.392Z" fill="#EC6565"/><path d="m54.645 110.598-32.709.141c-4.096.017-7.437-2.388-7.461-5.375l-.03-3.729 47.545-.204.031 3.728c.024 2.987-3.278 5.421-7.376 5.439Z" fill="#FFAC79"/><path opacity=".25" d="m61.991 101.431-2.457.012c-.46 2.648-3.545 4.706-7.309 4.721l-27.484.118c-3.764.017-6.88-2.015-7.382-4.659l-2.914.012.03 3.729c.024 2.987 3.365 5.392 7.46 5.375l32.71-.141c4.098-.017 7.4-2.452 7.376-5.439l-.03-3.728Z" fill="#F97762"/><path d="m63.337 91.544-50.5.298c-.059-9.85 8.378-17.885 18.842-17.946l12.607-.074c10.463-.062 18.993 7.874 19.05 17.722Z" fill="#FFB6AF"/><path opacity=".08" d="m63.337 91.544-50.5.298c-.059-9.85 8.378-17.885 18.842-17.946l12.607-.074c10.463-.062 18.993 7.874 19.05 17.722Z" fill="#FFF6F7"/><path d="m63.337 91.544-50.5.298c-.059-9.85 8.378-17.885 18.842-17.946l12.607-.074c10.463-.062 18.993 7.874 19.05 17.722Z" fill="#FFAC79"/><path opacity=".25" d="m51.739 75.21.115.076c5.103 3.406 2.608 11.416-3.523 11.452l-22.676.134c-4.473.026-7.05-5.209-4.196-8.659a14.76 14.76 0 0 1 3.69-3.187c-7.229 2.547-12.357 9.129-12.312 16.816l50.5-.297c-.043-7.361-4.82-13.652-11.598-16.335Z" fill="#F97762"/><path d="M36.346 78.403c.14.042.4.078.748.055.349-.025.601-.099.735-.16a2.179 2.179 0 0 0-.75-.056c-.347.024-.6.098-.733.16Zm.529.5c-.515 0-1.032-.118-1.056-.464-.027-.402.646-.593 1.23-.635.58-.04 1.278.053 1.306.455.028.402-.644.594-1.23.636a3.898 3.898 0 0 1-.25.008Zm7.289 1.553c.141.043.404.08.749.056.348-.025.6-.098.735-.16-.142-.043-.4-.08-.75-.056-.348.024-.6.098-.734.16Zm.53.502c-.516 0-1.031-.118-1.056-.465-.01-.134.057-.326.43-.471.214-.084.498-.142.8-.163a2.79 2.79 0 0 1 .813.048c.39.092.483.271.493.407.026.403-.645.594-1.23.635a3.953 3.953 0 0 1-.25.01Zm-2.545-4.567c.141.042.4.083.75.056.348-.025.6-.098.735-.16-.141-.043-.398-.08-.75-.056-.348.024-.6.098-.735.16Zm.53.502c-.515 0-1.03-.118-1.055-.465-.01-.134.057-.326.43-.471.213-.084.498-.142.8-.163.58-.042 1.278.052 1.305.455.01.135-.058.327-.429.472a2.808 2.808 0 0 1-.8.163 3.899 3.899 0 0 1-.25.009ZM29.31 80.606c.142.042.404.08.75.055.348-.024.6-.098.735-.16-.142-.043-.401-.081-.75-.056-.347.025-.601.098-.735.16Zm.53.501c-.515 0-1.031-.118-1.055-.465-.01-.134.057-.326.43-.47.257-.093.526-.148.8-.164a2.87 2.87 0 0 1 .813.048c.39.092.483.272.492.407.01.136-.058.327-.43.472a2.809 2.809 0 0 1-.799.163 3.899 3.899 0 0 1-.251.01Zm-.123-4.766c.141.043.402.08.75.055.348-.024.6-.098.734-.16a2.202 2.202 0 0 0-.75-.056c-.347.025-.6.099-.734.16Zm.53.501c-.515 0-1.032-.118-1.056-.464-.01-.135.058-.326.43-.472.214-.083.498-.141.8-.163.272-.023.546-.007.814.048.39.092.482.272.492.407.01.136-.058.327-.43.473a2.805 2.805 0 0 1-.8.163 3.898 3.898 0 0 1-.25.008Z" fill="#F8F8EE"/><path d="M119.769 110.862H61.044c-3.777 0-6.84-3.069-6.84-6.855v-3.994a3.081 3.081 0 0 1 .9-2.175 3.067 3.067 0 0 1 2.169-.9h66.268a3.059 3.059 0 0 1 2.17.9 3.084 3.084 0 0 1 .898 2.175v3.994c0 3.786-3.063 6.855-6.84 6.855Z" fill="#353535"/><path d="m65.897 82.968-5.783 10.005c-1.969 3.406.492 7.665 4.43 7.665h11.567c3.939 0 6.4-4.26 4.43-7.665l-5.783-10.005c-1.968-3.407-6.891-3.407-8.86 0Z" fill="#E0E0E0"/><path opacity=".11" d="M62.995 92.052a.113.113 0 0 1-.078-.032c-.194-.191-.413-.536-.438-.84a.644.644 0 0 1 .175-.481.428.428 0 0 1 .32-.126c.11.01.21.068.294.148a.57.57 0 0 1 .073-.196c.156-.257.502-.293.75-.176.16.076.271.195.38.312.1.106.193.206.316.263a.109.109 0 0 1 .067.106.109.109 0 0 1-.075.1.11.11 0 0 1-.086-.008c-.16-.075-.272-.195-.38-.311-.1-.107-.194-.207-.316-.265-.152-.072-.377-.057-.471.094-.064.106-.064.287-.045.408a.11.11 0 0 1-.076.123.108.108 0 0 1-.13-.06c-.07-.152-.195-.31-.319-.319-.066-.013-.116.032-.148.064a.403.403 0 0 0-.11.306c.02.238.202.533.373.702a.11.11 0 0 1 .025.12.112.112 0 0 1-.101.069v-.001Zm-1.187 3.084a.113.113 0 0 1-.075-.03 1.155 1.155 0 0 1-.326-.59c-.034-.158-.018-.288.046-.386.116-.18.355-.196.516-.12.153.072.262.209.35.32a.11.11 0 0 1-.055.174.11.11 0 0 1-.083-.01.11.11 0 0 1-.032-.028c-.078-.097-.166-.208-.272-.258-.079-.038-.194-.031-.242.041-.038.06-.028.154-.014.222a.924.924 0 0 0 .262.476.11.11 0 0 1 .027.12.11.11 0 0 1-.102.07Zm7.667-4.457a.108.108 0 0 1-.104-.075 1.442 1.442 0 0 0-.278-.49c-.09-.103-.174-.161-.255-.179a.282.282 0 0 0-.288.139.318.318 0 0 0 .03.342.11.11 0 0 1-.015.154.11.11 0 0 1-.154-.016.537.537 0 0 1-.051-.587.495.495 0 0 1 .523-.246c.13.027.249.106.374.248.143.165.253.36.322.567a.111.111 0 0 1-.016.098.11.11 0 0 1-.088.045Zm-.947 4.363a.11.11 0 0 1-.107-.085 4.601 4.601 0 0 1-.11-.764c-.014-.25.084-.344.168-.378a.316.316 0 0 1 .218.004c.104.031.2.075.29.131a.534.534 0 0 1 .295-.402c.306-.134.623.033.786.146.079.054.154.117.228.178.116.095.224.185.347.247a.11.11 0 0 1 .048.147c-.029.056-.096.077-.147.048a2.131 2.131 0 0 1-.387-.274c-.07-.057-.14-.115-.214-.166-.126-.086-.365-.215-.573-.126-.084.036-.152.138-.167.245a.216.216 0 0 0 .028.148l.04.041a.109.109 0 0 1-.002.15.108.108 0 0 1-.148.009.36.36 0 0 1-.055-.054 1.081 1.081 0 0 0-.433-.26c-.013-.005-.055-.02-.07-.01-.017.007-.04.057-.033.165.013.244.048.487.104.726a.11.11 0 0 1-.02.093.11.11 0 0 1-.086.041Zm2.74-9.984a.11.11 0 0 1-.108-.092 2.173 2.173 0 0 1 .014-.768c.027-.135.08-.325.24-.425.175-.111.394-.054.534.054.072.056.13.123.178.194a.724.724 0 0 1 .21-.223.864.864 0 0 1 .656-.14c.408.082.717.416.915.661a.108.108 0 0 1 .024.08.11.11 0 0 1-.077.094.108.108 0 0 1-.084-.009.11.11 0 0 1-.032-.028c-.177-.217-.451-.514-.79-.583a.633.633 0 0 0-.488.105.454.454 0 0 0-.2.308.11.11 0 0 1-.087.092.112.112 0 0 1-.115-.053c-.066-.115-.14-.245-.243-.324-.078-.06-.2-.099-.284-.044-.066.042-.113.135-.142.283-.045.228-.05.461-.014.69a.11.11 0 0 1-.09.127l-.017.001Zm4.693 9.732a.109.109 0 0 1-.101-.069 1.483 1.483 0 0 1-.092-.71c.023-.185.115-.389.312-.41.098-.017.173.027.24.064.278.157.516.386.687.663a.11.11 0 0 1-.033.156.108.108 0 0 1-.085.013.11.11 0 0 1-.068-.054 1.67 1.67 0 0 0-.61-.586.225.225 0 0 0-.107-.039c-.06.007-.106.118-.118.22-.024.203.002.41.076.603a.109.109 0 0 1-.1.15Z" fill="#390028"/><path opacity=".11" d="M65.206 100.529H75.45v-8.934c-.001-.785-.312-1.536-.865-2.09a2.95 2.95 0 0 0-2.086-.868h-4.343a2.95 2.95 0 0 0-2.085.867 2.964 2.964 0 0 0-.865 2.09v8.935Zm10.352.219H65.096a.102.102 0 0 1-.041-.009.102.102 0 0 1-.06-.059.107.107 0 0 1-.008-.042v-9.044c0-.842.335-1.65.93-2.244.594-.596 1.4-.93 2.24-.932h4.342c.84.001 1.646.336 2.24.931.594.596.928 1.403.929 2.245v9.044a.107.107 0 0 1-.008.042.102.102 0 0 1-.06.059.102.102 0 0 1-.042.009Z" fill="#390028"/><path d="M75.558 100.638H65.096v-9.044a3.072 3.072 0 0 1 1.89-2.833c.37-.154.769-.233 1.17-.233H72.5c.811 0 1.59.323 2.163.898a3.07 3.07 0 0 1 .896 2.168v9.044Z" fill="#390028"/><path opacity=".11" d="M68.786 84.682a.041.041 0 0 0-.03.012.041.041 0 0 0-.012.03c0 .045.083.045.083 0a.042.042 0 0 0-.041-.042Zm0 .302a.26.26 0 0 1-.172-.438.26.26 0 0 1 .172-.083.259.259 0 0 1 .26.26.26.26 0 0 1-.26.26Zm-2.018.673a.042.042 0 0 0-.042.041c0 .044.083.046.083 0a.041.041 0 0 0-.041-.041Zm0 .3a.26.26 0 0 1-.26-.259.261.261 0 0 1 .439-.176c.048.046.077.11.08.176a.258.258 0 0 1-.26.26Zm1.867-.025a.192.192 0 1 0-.001.383.192.192 0 0 0 .001-.383Zm0 .602a.41.41 0 0 1-.29-.702.41.41 0 0 1 .7.291.41.41 0 0 1-.41.411ZM78.71 95.236a.044.044 0 0 0-.018.004.042.042 0 0 0-.023.041c0 .011.005.021.013.028a.044.044 0 0 0 .06-.005.041.041 0 0 0-.006-.058.045.045 0 0 0-.026-.01Zm.115.138h.003-.003Zm-.117.164a.26.26 0 0 1-.023-.52.262.262 0 0 1 .19.059.262.262 0 0 1-.017.414.26.26 0 0 1-.15.047Zm-2.173-.846a.039.039 0 0 0-.031.015.04.04 0 0 0-.01.03c0 .007.003.018.015.027a.04.04 0 0 0 .058-.004c.014-.018.012-.045-.006-.058a.041.041 0 0 0-.026-.01Zm.116.138h.003-.003Zm-.116.163a.265.265 0 0 1-.23-.139.26.26 0 1 1 .43.046.26.26 0 0 1-.2.093Zm1.16 1.072a.19.19 0 0 0-.184.133.188.188 0 0 0-.008.075.193.193 0 0 0 .336.1.193.193 0 0 0 .047-.135.19.19 0 0 0-.191-.174Zm0 .602a.41.41 0 1 1 0-.82.41.41 0 0 1 0 .82Z" fill="#390028"/><path d="M121.585 96.669h-15.883a2.832 2.832 0 0 1-1.997-.832 2.847 2.847 0 0 1-.831-2.001v-3.21c.003-.75.301-1.47.831-2 .53-.532 1.248-.83 1.997-.833h15.883a2.839 2.839 0 0 1 2.827 2.833v3.21a2.838 2.838 0 0 1-2.827 2.833Z" fill="#F8F8EE"/><path opacity=".11" d="M106.86 93.761a.11.11 0 0 1-.077-.031c-.198-.197-.425-.55-.452-.865a.645.645 0 0 1 .18-.492.402.402 0 0 1 .327-.129.491.491 0 0 1 .304.154.638.638 0 0 1 .077-.207c.162-.264.519-.299.768-.18.165.078.281.202.392.322.103.108.2.212.326.272a.107.107 0 0 1 .063.105.12.12 0 0 1-.01.042.11.11 0 0 1-.147.052c-.164-.079-.279-.202-.39-.323-.103-.108-.2-.211-.327-.272-.16-.075-.392-.06-.488.097-.068.112-.07.292-.049.425a.107.107 0 0 1-.076.123.106.106 0 0 1-.076-.005.11.11 0 0 1-.054-.055c-.073-.157-.202-.321-.33-.331-.075-.012-.123.033-.156.065a.429.429 0 0 0-.115.319c.02.247.21.552.387.727a.109.109 0 0 1 .03.056.107.107 0 0 1-.005.064.116.116 0 0 1-.041.05.107.107 0 0 1-.061.017Zm-1.224 1.382a.111.111 0 0 1-.075-.03 1.18 1.18 0 0 1-.335-.605c-.034-.163-.018-.297.047-.399.119-.182.361-.198.528-.12.158.073.265.209.36.328a.11.11 0 0 1 .02.038c.004.014.005.028.004.042a.116.116 0 0 1-.013.041.1.1 0 0 1-.028.033.11.11 0 0 1-.154-.017c-.083-.106-.17-.215-.281-.267-.086-.038-.204-.032-.253.043-.04.062-.031.16-.017.233.04.187.137.363.272.49a.108.108 0 0 1-.014.17.108.108 0 0 1-.061.02Zm7.905-2.796a.106.106 0 0 1-.064-.021.107.107 0 0 1-.04-.055 1.454 1.454 0 0 0-.287-.506c-.094-.107-.18-.167-.264-.186a.291.291 0 0 0-.301.144.34.34 0 0 0 .03.357.103.103 0 0 1 .025.08.103.103 0 0 1-.04.074.103.103 0 0 1-.037.02.102.102 0 0 1-.083-.009.105.105 0 0 1-.033-.027.552.552 0 0 1-.054-.602.506.506 0 0 1 .539-.25c.132.027.258.111.381.255.147.165.262.368.332.582a.126.126 0 0 1 .004.05.104.104 0 0 1-.02.048.109.109 0 0 1-.088.046Zm-.977 2.7a.111.111 0 0 1-.068-.025.113.113 0 0 1-.038-.06 4.633 4.633 0 0 1-.113-.787c-.014-.257.085-.352.169-.389a.342.342 0 0 1 .225.003c.106.034.208.08.303.14a.553.553 0 0 1 .303-.417c.312-.136.638.034.804.15.081.056.16.12.238.184.118.098.231.19.357.255a.115.115 0 0 1 .034.026c.009.01.016.023.021.037a.123.123 0 0 1 .005.043.1.1 0 0 1-.012.041.1.1 0 0 1-.026.034.116.116 0 0 1-.037.02.113.113 0 0 1-.084-.006c-.148-.076-.274-.18-.397-.281a3.663 3.663 0 0 0-.223-.173c-.104-.072-.369-.23-.594-.13-.086.038-.158.144-.174.256a.224.224 0 0 0 .029.154l.041.043c.019.02.029.046.029.074 0 .028-.01.055-.029.075a.11.11 0 0 1-.149.011 1.145 1.145 0 0 0-.503-.326.237.237 0 0 0-.077-.01c-.017.008-.042.06-.034.173.013.249.05.501.107.75a.101.101 0 0 1 0 .049.107.107 0 0 1-.107.085Zm6.028-2.232a.11.11 0 0 1-.108-.092 2.285 2.285 0 0 1 .014-.791c.028-.138.084-.334.246-.436.157-.099.376-.076.548.057a.913.913 0 0 1 .186.203.73.73 0 0 1 .217-.234.877.877 0 0 1 .673-.144c.422.086.74.43.942.68.011.01.019.024.025.038a.111.111 0 0 1-.005.089.108.108 0 0 1-.113.06.113.113 0 0 1-.043-.017.102.102 0 0 1-.032-.031c-.183-.226-.464-.532-.818-.605a.676.676 0 0 0-.504.108.468.468 0 0 0-.207.322.112.112 0 0 1-.089.091.109.109 0 0 1-.114-.052c-.072-.125-.146-.254-.252-.335-.079-.061-.207-.1-.298-.045-.068.044-.116.14-.147.294-.046.235-.05.476-.013.713a.122.122 0 0 1-.002.042.108.108 0 0 1-.017.039.11.11 0 0 1-.032.029.103.103 0 0 1-.039.015.079.079 0 0 1-.018.002Zm1.637 1.972a.108.108 0 0 1-.101-.069 1.516 1.516 0 0 1-.094-.73c.022-.19.118-.4.318-.422.09-.014.171.026.243.067.291.163.535.398.709.683a.097.097 0 0 1 .015.04.103.103 0 0 1-.019.081.108.108 0 0 1-.032.03.104.104 0 0 1-.082.012.111.111 0 0 1-.039-.017.11.11 0 0 1-.028-.032 1.753 1.753 0 0 0-.63-.606.274.274 0 0 0-.113-.04c-.065.007-.113.12-.126.23-.024.21.004.427.081.623a.12.12 0 0 1 .008.042.101.101 0 0 1-.009.042.109.109 0 0 1-.101.066Z" fill="#390028"/><path d="M123.407 90.28H103.88a2.832 2.832 0 0 1-1.997-.832 2.849 2.849 0 0 1-.832-2.001V85.73a2.85 2.85 0 0 1 .831-2.002 2.835 2.835 0 0 1 1.998-.832h19.527c.75.002 1.468.301 1.998.832.529.531.828 1.251.83 2.002v1.716a2.843 2.843 0 0 1-.831 2 2.83 2.83 0 0 1-1.997.832Z" fill="#FF7664"/><path d="M104.229 90.28h1.795v-7.383h-1.795v7.382Zm5.459 0h1.795v-7.383h-1.795v7.382Zm5.759 0h1.795v-7.383h-1.795v7.382Zm5.642 0h1.795v-7.383h-1.795v7.382Z" fill="#F94A3D"/><path d="M100.14 97.637H81.759V86.6h18.381v11.037Z" fill="#390028"/><path d="M81.764 86.64c0-1.679 4.112-3.038 9.185-3.038s9.185 1.36 9.185 3.037c0 1.678-4.112 3.038-9.185 3.038s-9.185-1.36-9.185-3.038Z" fill="#F8F8EE"/><path d="M88.197 86.319c0-.502 1.233-.91 2.752-.91 1.52 0 2.752.408 2.752.91s-1.232.91-2.752.91c-1.52 0-2.752-.408-2.752-.91Z" fill="#F94A3D"/><path opacity=".11" d="M88.74 85.459a.108.108 0 0 1-.108-.092 2.228 2.228 0 0 1 .016-.792c.026-.138.082-.333.244-.435.18-.114.406-.055.547.055a.906.906 0 0 1 .187.205.738.738 0 0 1 .216-.234.892.892 0 0 1 .674-.145c.42.086.74.43.942.68a.108.108 0 0 1 .012.122.108.108 0 0 1-.148.044.109.109 0 0 1-.033-.028c-.182-.224-.464-.531-.817-.603a.66.66 0 0 0-.505.109.48.48 0 0 0-.206.32.112.112 0 0 1-.088.092.11.11 0 0 1-.115-.052c-.077-.133-.149-.256-.252-.336-.08-.061-.205-.1-.297-.043-.07.042-.117.139-.148.293a2.049 2.049 0 0 0-.014.713.11.11 0 0 1-.09.126l-.018.001ZM86.18 85.072a.045.045 0 0 0-.043.028.048.048 0 0 0-.003.017c0 .05.093.05.093 0a.046.046 0 0 0-.046-.045Zm0 .31a.262.262 0 0 1-.256-.16.266.266 0 0 1 .15-.353.263.263 0 0 1 .357.248.265.265 0 0 1-.25.265Zm-2.08.694a.046.046 0 0 0-.046.046c0 .05.092.05.092 0a.045.045 0 0 0-.003-.017.046.046 0 0 0-.043-.028Zm0 .31a.265.265 0 0 1-.265-.264.267.267 0 0 1 .446-.176c.05.046.08.11.084.176a.265.265 0 0 1-.265.265Zm1.925-.026a.202.202 0 1 0 0 .403.202.202 0 0 0 0-.403Zm0 .62a.417.417 0 0 1-.421-.25.422.422 0 0 1 .421-.588.42.42 0 0 1 .273.703.42.42 0 0 1-.273.135ZM96.923 86.093a.046.046 0 0 0-.046.045c0 .05.092.05.092 0a.045.045 0 0 0-.014-.032.044.044 0 0 0-.015-.01.048.048 0 0 0-.017-.003Zm0 .31a.266.266 0 0 1 0-.53.265.265 0 0 1 0 .53Zm-2.081.695a.046.046 0 0 0-.046.046c0 .05.092.05.092 0a.046.046 0 0 0-.046-.046Zm0 .31a.265.265 0 1 1 0-.53.265.265 0 0 1 0 .53Zm1.925-.027a.202.202 0 0 0-.2.12.202.202 0 0 0 .2.28.2.2 0 0 0 .185-.2.202.202 0 0 0-.185-.2Zm0 .62a.42.42 0 0 1-.297-.718.42.42 0 1 1 .594.595.42.42 0 0 1-.297.123Z" fill="#390028"/><path d="M120.07 107.287h-15.882a2.838 2.838 0 0 1-2.829-2.835v-3.208c.002-.751.301-1.47.831-2.002a2.834 2.834 0 0 1 1.998-.832h15.882a2.843 2.843 0 0 1 2.827 2.834v3.208a2.836 2.836 0 0 1-2.827 2.835Z" fill="#F8F8EE"/><path opacity=".11" d="M105.345 104.378a.11.11 0 0 1-.077-.031c-.199-.198-.425-.553-.451-.866a.637.637 0 0 1 .038-.263.635.635 0 0 1 .14-.227.407.407 0 0 1 .328-.13c.117.014.225.07.305.156a.612.612 0 0 1 .076-.209c.163-.263.517-.298.77-.179.164.078.28.2.391.32.102.11.199.213.325.273a.107.107 0 0 1 .057.062.087.087 0 0 1 .007.042.1.1 0 0 1-.01.042.124.124 0 0 1-.025.035.125.125 0 0 1-.037.022.102.102 0 0 1-.042.006.119.119 0 0 1-.042-.011c-.165-.078-.281-.2-.392-.321-.103-.109-.199-.213-.325-.273-.162-.076-.395-.061-.491.097-.067.111-.067.298-.047.424a.106.106 0 0 1-.014.076.105.105 0 0 1-.062.047.104.104 0 0 1-.13-.06c-.073-.156-.203-.321-.332-.33-.065-.012-.122.033-.156.067a.42.42 0 0 0-.113.317c.019.245.208.551.385.727a.1.1 0 0 1 .031.056.098.098 0 0 1-.006.063.104.104 0 0 1-.04.05.111.111 0 0 1-.061.018Zm-1.224 1.383a.114.114 0 0 1-.074-.03 1.191 1.191 0 0 1-.336-.605c-.036-.163-.019-.298.048-.399.12-.184.36-.198.527-.121.159.074.271.216.361.33a.12.12 0 0 1 .02.039.149.149 0 0 1 .003.042.11.11 0 0 1-.042.073.107.107 0 0 1-.038.02c-.014.003-.029.004-.043.003a.112.112 0 0 1-.04-.014.112.112 0 0 1-.033-.028c-.094-.122-.176-.218-.28-.266-.082-.04-.203-.034-.252.042-.042.063-.032.162-.017.233.04.188.137.362.272.491a.104.104 0 0 1 .031.056.111.111 0 0 1-.005.065.114.114 0 0 1-.04.05.113.113 0 0 1-.062.019Zm7.905-2.798a.106.106 0 0 1-.064-.02.114.114 0 0 1-.039-.055 1.512 1.512 0 0 0-.288-.507c-.094-.106-.18-.167-.265-.185a.284.284 0 0 0-.299.143.336.336 0 0 0 .03.358.108.108 0 0 1-.015.154.111.111 0 0 1-.037.02c-.014.004-.029.005-.043.004a.123.123 0 0 1-.041-.013.122.122 0 0 1-.033-.027.555.555 0 0 1-.053-.603.505.505 0 0 1 .537-.25c.132.029.258.111.383.255.146.166.26.369.33.582a.104.104 0 0 1 .006.043.119.119 0 0 1-.011.041.093.093 0 0 1-.026.033.095.095 0 0 1-.038.021.093.093 0 0 1-.034.006Zm-.977 2.7a.105.105 0 0 1-.068-.024.107.107 0 0 1-.038-.061 4.639 4.639 0 0 1-.113-.786c-.015-.257.085-.353.17-.388a.317.317 0 0 1 .225.004c.105.033.206.08.302.138a.545.545 0 0 1 .303-.418c.315-.136.64.036.805.151.081.056.158.12.235.183.12.098.233.192.359.256a.109.109 0 0 1 .055.064.109.109 0 0 1-.006.083c-.028.055-.096.078-.147.049a2.332 2.332 0 0 1-.4-.283c-.072-.059-.144-.119-.22-.172-.104-.071-.371-.229-.594-.13-.087.038-.16.144-.175.256a.22.22 0 0 0 .029.154l.041.043a.108.108 0 0 1 .027.075.106.106 0 0 1-.03.073.106.106 0 0 1-.071.034.115.115 0 0 1-.076-.022.335.335 0 0 1-.055-.058 1.145 1.145 0 0 0-.448-.267c-.048-.016-.068-.015-.075-.011-.017.008-.043.059-.036.174.014.252.051.505.108.749a.135.135 0 0 1 0 .049.108.108 0 0 1-.022.044.102.102 0 0 1-.038.03.096.096 0 0 1-.047.011Zm6.028-2.232a.11.11 0 0 1-.108-.092 2.208 2.208 0 0 1 .016-.79c.027-.138.083-.333.244-.436.183-.116.407-.053.548.057a.88.88 0 0 1 .187.203.707.707 0 0 1 .216-.234.88.88 0 0 1 .673-.144c.423.086.74.429.942.68.01.011.017.024.021.038.005.014.006.028.005.043a.102.102 0 0 1-.04.075.107.107 0 0 1-.038.02.104.104 0 0 1-.043.004.123.123 0 0 1-.041-.013.115.115 0 0 1-.033-.029c-.181-.225-.463-.532-.816-.605a.69.69 0 0 0-.505.11.474.474 0 0 0-.206.321.11.11 0 0 1-.089.092.12.12 0 0 1-.065-.009.123.123 0 0 1-.05-.043c-.076-.133-.148-.256-.252-.335-.08-.063-.207-.1-.297-.046-.069.044-.116.139-.147.294a2.028 2.028 0 0 0-.015.712.106.106 0 0 1-.024.089.116.116 0 0 1-.037.029.122.122 0 0 1-.046.009Zm1.637 1.973a.11.11 0 0 1-.101-.069 1.518 1.518 0 0 1-.094-.731c.023-.189.118-.398.318-.421.09-.014.175.028.244.066.288.162.532.397.708.683a.103.103 0 0 1 .015.04.104.104 0 0 1-.019.082.126.126 0 0 1-.032.029.097.097 0 0 1-.04.015.119.119 0 0 1-.042-.001.138.138 0 0 1-.039-.018.108.108 0 0 1-.028-.032 1.743 1.743 0 0 0-.63-.606.27.27 0 0 0-.114-.041c-.063.008-.111.121-.124.23a1.3 1.3 0 0 0 .08.624.106.106 0 0 1-.001.084.121.121 0 0 1-.024.035.116.116 0 0 1-.077.031Z" fill="#390028"/><path d="M121.893 100.897h-19.528a2.833 2.833 0 0 1-1.998-.832 2.848 2.848 0 0 1-.831-2.002v-1.715c.002-.751.301-1.47.831-2.002a2.834 2.834 0 0 1 1.998-.832h19.528a2.84 2.84 0 0 1 2.827 2.834v1.715a2.849 2.849 0 0 1-.83 2.002c-.53.531-1.248.83-1.997.832Z" fill="#FF7664"/><path d="M102.714 100.898h1.795v-7.384h-1.795v7.384Zm5.46 0h1.795v-7.384h-1.795v7.384Zm5.759 0h1.794v-7.384h-1.794v7.384Zm5.642 0h1.794v-7.384h-1.794v7.384Z" fill="#F94A3D"/><path d="M98.67 105.951H80.29V94.915h18.38v11.036Z" fill="#390028"/><path d="M80.296 94.955c0-1.678 4.111-3.038 9.184-3.038 5.073 0 9.186 1.36 9.186 3.038 0 1.677-4.113 3.037-9.186 3.037-5.073 0-9.184-1.36-9.184-3.037Z" fill="#F8F8EE"/><path d="M86.729 94.634c0-.502 1.231-.91 2.752-.91 1.519 0 2.75.408 2.75.91s-1.231.91-2.75.91c-1.52 0-2.752-.408-2.752-.91Z" fill="#F94A3D"/><path opacity=".11" d="M87.271 93.774a.108.108 0 0 1-.107-.092 2.185 2.185 0 0 1 .014-.792c.028-.137.083-.332.244-.435.183-.114.406-.052.549.056a.915.915 0 0 1 .187.203.726.726 0 0 1 .216-.233.88.88 0 0 1 .674-.144c.42.084.738.429.942.68a.112.112 0 0 1 .029.082.11.11 0 0 1-.199.056c-.182-.225-.465-.532-.816-.604a.675.675 0 0 0-.505.11.475.475 0 0 0-.207.32.113.113 0 0 1-.088.092c-.044.004-.092-.012-.115-.052-.07-.12-.145-.254-.252-.337-.079-.06-.206-.099-.297-.044-.069.044-.116.14-.148.294a1.99 1.99 0 0 0-.013.713.11.11 0 0 1-.108.127ZM84.711 93.387a.046.046 0 0 0-.046.046c0 .049.093.051.093 0a.048.048 0 0 0-.014-.033.046.046 0 0 0-.033-.013Zm0 .31a.263.263 0 0 1-.257-.16.267.267 0 0 1 .152-.354.265.265 0 0 1 .357.249.266.266 0 0 1-.252.265Zm-2.08.696a.046.046 0 0 0-.043.028.046.046 0 0 0-.004.017c0 .05.093.05.093 0a.046.046 0 0 0-.046-.045Zm0 .31a.266.266 0 0 1-.265-.265.266.266 0 0 1 .53 0 .267.267 0 0 1-.265.265Zm1.925-.027a.2.2 0 0 0-.142.343.2.2 0 1 0 .142-.343Zm0 .62a.42.42 0 0 1-.297-.717.419.419 0 0 1 .716.297.421.421 0 0 1-.42.42ZM95.454 94.408a.045.045 0 0 0-.042.029.045.045 0 0 0-.003.017c0 .05.091.051.091 0a.046.046 0 0 0-.046-.046Zm0 .31a.264.264 0 0 1-.265-.265.266.266 0 0 1 .265-.266.264.264 0 0 1 .265.266.265.265 0 0 1-.265.265Zm-2.08.696a.047.047 0 0 0-.033.012.048.048 0 0 0-.01.015.047.047 0 0 0-.004.018c0 .051.094.05.094 0a.044.044 0 0 0-.014-.032.045.045 0 0 0-.033-.013Zm0 .31a.265.265 0 0 1-.187-.453.265.265 0 1 1 .187.453Zm1.925-.027a.201.201 0 1 0 .038.399.2.2 0 0 0-.038-.399Zm0 .62a.418.418 0 0 1-.457-.418.422.422 0 0 1 .457-.42.42.42 0 0 1 0 .839Z" fill="#390028"/><path d="m62.441 90.208-5.962 10.317c-2.031 3.511.507 7.902 4.567 7.902h11.927c4.06 0 6.599-4.391 4.568-7.902l-5.964-10.317c-2.03-3.513-7.106-3.513-9.136 0Z" fill="#fff"/><path opacity=".11" d="M59.448 99.57a.111.111 0 0 1-.077-.03c-.2-.199-.425-.553-.45-.865a.65.65 0 0 1 .178-.49.404.404 0 0 1 .327-.131.5.5 0 0 1 .305.156.61.61 0 0 1 .076-.209c.162-.261.519-.3.77-.18.164.078.28.201.391.322.103.108.2.212.326.273a.108.108 0 0 1 .062.061.11.11 0 0 1-.069.145.107.107 0 0 1-.086-.008c-.164-.079-.28-.202-.391-.322-.103-.11-.2-.212-.326-.273-.16-.074-.395-.058-.49.097-.067.11-.069.292-.048.424a.108.108 0 0 1-.076.123.107.107 0 0 1-.13-.06c-.072-.156-.203-.32-.332-.33-.072-.013-.123.032-.155.066a.422.422 0 0 0-.113.319c.019.244.207.55.385.725a.11.11 0 0 1-.016.17.109.109 0 0 1-.061.018Zm-1.223 3.182a.117.117 0 0 1-.075-.03 1.19 1.19 0 0 1-.335-.607c-.036-.162-.02-.295.047-.398.118-.181.36-.2.526-.121.159.074.266.21.362.329a.11.11 0 0 1-.056.173.102.102 0 0 1-.042.004.113.113 0 0 1-.074-.04c-.08-.101-.17-.215-.28-.268-.083-.037-.203-.032-.253.044-.042.063-.032.161-.017.232.04.189.137.365.272.492a.111.111 0 0 1 .026.12.112.112 0 0 1-.101.07Zm7.905-4.596a.107.107 0 0 1-.103-.075 1.504 1.504 0 0 0-.289-.508c-.093-.105-.178-.165-.263-.184a.295.295 0 0 0-.301.143.334.334 0 0 0 .03.358.109.109 0 0 1 .013.12.11.11 0 0 1-.107.058.109.109 0 0 1-.074-.04.557.557 0 0 1-.054-.603.502.502 0 0 1 .538-.25c.131.028.257.111.382.254.146.167.26.369.331.584a.107.107 0 0 1-.069.137.092.092 0 0 1-.034.006Zm-.977 4.498a.106.106 0 0 1-.068-.024.106.106 0 0 1-.04-.061 4.737 4.737 0 0 1-.112-.786c-.014-.257.086-.352.17-.388a.335.335 0 0 1 .224.002c.107.034.208.081.303.14a.545.545 0 0 1 .304-.418c.314-.139.638.034.804.151.081.055.158.119.235.182.12.098.232.192.36.256a.135.135 0 0 1 .034.026.112.112 0 0 1 .026.08.1.1 0 0 1-.012.041.103.103 0 0 1-.026.034.093.093 0 0 1-.037.021.103.103 0 0 1-.084-.006 2.19 2.19 0 0 1-.4-.283c-.072-.059-.144-.118-.22-.171-.104-.073-.369-.228-.593-.13-.088.038-.16.144-.175.256a.223.223 0 0 0 .028.153l.042.044a.108.108 0 0 1-.001.148.11.11 0 0 1-.072.036.11.11 0 0 1-.076-.024 1.125 1.125 0 0 0-.504-.325.174.174 0 0 0-.075-.011c-.017.008-.043.06-.036.174.014.253.05.505.108.749a.111.111 0 0 1-.06.123.111.111 0 0 1-.047.011Zm2.825-10.295a.11.11 0 0 1-.107-.092 2.223 2.223 0 0 1 .015-.79c.028-.138.083-.334.246-.436.178-.115.402-.053.546.056a.928.928 0 0 1 .187.204.719.719 0 0 1 .216-.234.892.892 0 0 1 .673-.144c.422.084.74.429.942.68a.108.108 0 0 1-.014.154.108.108 0 0 1-.038.02c-.014.005-.028.006-.042.005a.107.107 0 0 1-.074-.04c-.183-.226-.465-.533-.817-.606a.676.676 0 0 0-.504.11.482.482 0 0 0-.208.322.11.11 0 0 1-.088.09.112.112 0 0 1-.115-.052c-.071-.125-.146-.254-.252-.334-.078-.063-.204-.102-.296-.046-.07.044-.116.136-.148.293a2.032 2.032 0 0 0-.014.713.108.108 0 0 1-.108.127Zm4.84 10.036a.112.112 0 0 1-.062-.019.11.11 0 0 1-.04-.051 1.503 1.503 0 0 1-.093-.73c.022-.189.118-.398.317-.421.088-.017.175.028.245.066.287.162.532.397.708.683a.107.107 0 0 1 .013.083.11.11 0 0 1-.131.081.109.109 0 0 1-.068-.049 1.756 1.756 0 0 0-.63-.607.286.286 0 0 0-.113-.04c-.064.008-.111.121-.124.23-.026.211.002.426.08.624a.105.105 0 0 1 .007.042.112.112 0 0 1-.033.077.124.124 0 0 1-.036.023.135.135 0 0 1-.04.008Z" fill="#390028"/><path opacity=".11" d="M61.725 108.318h10.568v-9.31c0-.785-.312-1.536-.865-2.09a2.95 2.95 0 0 0-2.085-.868h-4.668a2.95 2.95 0 0 0-2.085.867 2.964 2.964 0 0 0-.865 2.09v9.311Zm10.678.219H61.616a.107.107 0 0 1-.078-.032.111.111 0 0 1-.032-.078v-9.42c.001-.842.335-1.65.93-2.245a3.17 3.17 0 0 1 2.24-.931h4.667a3.17 3.17 0 0 1 2.24.931c.594.596.928 1.403.93 2.245v9.42a.107.107 0 0 1-.01.042.102.102 0 0 1-.023.036.12.12 0 0 1-.035.024.12.12 0 0 1-.042.008Z" fill="#390028"/><path d="M72.403 108.427H61.616v-9.42a3.073 3.073 0 0 1 1.888-2.833c.372-.154.77-.234 1.171-.234h4.668a3.054 3.054 0 0 1 2.827 1.894c.154.372.233.77.233 1.173v9.42Z" fill="#390028"/><path opacity=".11" d="M65.42 91.972a.045.045 0 0 0-.046.045c-.002.05.091.05.091 0a.046.046 0 0 0-.046-.045Zm0 .31a.265.265 0 0 1-.266-.264.266.266 0 0 1 .265-.253.265.265 0 0 1 .264.253.266.266 0 0 1-.264.265Zm-2.082.695a.045.045 0 0 0-.017.004.045.045 0 0 0-.025.025.045.045 0 0 0-.004.018c0 .05.093.05.093 0a.046.046 0 0 0-.047-.047Zm0 .31a.265.265 0 0 1-.265-.263.266.266 0 0 1 .447-.176c.049.046.079.109.083.176a.265.265 0 0 1-.265.263Zm1.926-.027a.199.199 0 0 0-.2.12.203.203 0 0 0 .118.271.202.202 0 0 0 .213-.054.202.202 0 0 0-.131-.337Zm0 .621a.42.42 0 0 1-.297-.718.42.42 0 1 1 .594.595.42.42 0 0 1-.297.123ZM75.65 102.855a.043.043 0 0 0-.034.016.044.044 0 0 0-.01.034c0 .006.003.019.016.031a.048.048 0 0 0 .065-.006c.014-.017.01-.051-.007-.064a.046.046 0 0 0-.03-.011Zm.121.145h.003-.003Zm-.12.165a.26.26 0 0 1-.169-.062.263.263 0 0 1 .147-.466.263.263 0 0 1 .225.433v.001a.256.256 0 0 1-.091.069.255.255 0 0 1-.112.025Zm-2.242-.872a.046.046 0 0 0-.035.017.044.044 0 0 0 .007.065c.015.013.048.009.064-.007a.044.044 0 0 0 .011-.034.04.04 0 0 0-.006-.017.038.038 0 0 0-.012-.013.044.044 0 0 0-.029-.011Zm0 .311a.264.264 0 0 1-.239-.154.266.266 0 0 1 .037-.282.268.268 0 0 1 .372-.034.26.26 0 0 1 .095.181.261.261 0 0 1-.063.194.271.271 0 0 1-.08.066.265.265 0 0 1-.099.029h-.023Zm1.434 1.504h.002-.002Zm-.237-.4a.198.198 0 0 0-.198.252.195.195 0 0 0 .067.102.201.201 0 0 0 .26-.307.208.208 0 0 0-.129-.047Zm-.001.62a.417.417 0 0 1-.417-.474.42.42 0 0 1 .38-.364c.11-.01.22.024.306.095a.423.423 0 0 1 .053.593v.001a.423.423 0 0 1-.322.149Z" fill="#390028"/><path d="M122.044 110.862H58.991a5.439 5.439 0 0 1-3.853-1.6 5.467 5.467 0 0 1-1.596-3.861h73.951a5.47 5.47 0 0 1-1.596 3.862 5.443 5.443 0 0 1-3.853 1.599Z" fill="#4D5DDA"/><path d="M24.27 60.171c0 .376-.309.68-.688.68a.682.682 0 0 1-.687-.68c0-.374.307-.679.687-.679.38 0 .688.305.688.68Zm23.92-55.15c0 .375-.308.68-.687.68a.681.681 0 0 1-.688-.68c0-.374.308-.679.688-.679.379 0 .688.304.688.68Zm77.341 47.25a.69.69 0 0 1-.426.63.68.68 0 0 1-.262.05.679.679 0 0 1-.633-.418.69.69 0 0 1-.054-.261c0-.375.307-.68.687-.68a.68.68 0 0 1 .688.68ZM97.789 1.346c0 .375-.308.68-.687.68a.681.681 0 0 1-.688-.68c0-.375.307-.68.688-.68.379 0 .687.305.687.68ZM13.8 12.256c0 .375-.309.68-.688.68a.683.683 0 0 1-.687-.68c0-.375.307-.68.687-.68.38 0 .688.304.688.68Zm99.198 21.5c0 .375-.309.679-.688.679a.684.684 0 0 1-.688-.68c0-.375.308-.679.688-.679.379 0 .688.304.688.68Zm-22.392-3.304a.342.342 0 0 1-.475.314.342.342 0 0 1-.213-.314c0-.188.154-.34.343-.34.19 0 .345.152.345.34Zm50.821 6.74a.336.336 0 0 1-.213.315.344.344 0 0 1-.131.025.341.341 0 0 1-.344-.34.34.34 0 0 1 .344-.34.336.336 0 0 1 .242.1.35.35 0 0 1 .102.24Zm-18.953-22.98a.692.692 0 0 1-.203.484.689.689 0 0 1-1.173-.483c0-.375.308-.68.689-.68a.68.68 0 0 1 .687.68Zm-90.982 18.2a.495.495 0 0 1-.847.349.496.496 0 0 1-.147-.349c0-.27.222-.49.498-.49.273 0 .496.22.496.49Zm97.516 41.732a.489.489 0 0 1-.496.49.49.49 0 0 1-.459-.301.494.494 0 0 1 .459-.68c.274 0 .496.218.496.49ZM4.094 52.205a.495.495 0 0 1-.846.35.495.495 0 0 1-.148-.35c0-.27.222-.49.498-.49.274 0 .496.22.496.49Z" fill="#F9B361"/></svg>