<svg width="148" height="117" fill="none" xmlns="http://www.w3.org/2000/svg"><g opacity=".61"><g opacity=".61"><path opacity=".41" d="M.789 84.546c-.96-1.144-1.004-2.886-.102-3.892.903-1.004 3.04-1.59 4-.446.96 1.144-.404 2.781-.731 4.213-.457 1.998-2.208 1.269-3.167.125Z" fill="#FF9455"/></g><g opacity=".61"><path opacity=".41" d="M142.743 67.648c1.2 1.066 1.448 3.086.553 4.513-.896 1.428-3.215 2.715-4.415 1.65-1.201-1.065.137-3.36.341-5.124.284-2.46 2.321-2.104 3.521-1.038Z" fill="#FF9455"/></g><g opacity=".61"><path opacity=".41" d="M73.471 14.805c1.279-1.621 3.85-2.085 5.744-1.034 1.894 1.05 3.71 3.944 2.43 5.565-1.278 1.62-4.314.064-6.59-.072-3.174-.19-2.862-2.839-1.584-4.46Z" fill="#FF9455"/></g><g opacity=".61"><path opacity=".28" d="M9.295 108.19c-1.364-8.074.823-14.96 1.368-22.877.517-7.494-1.72-13.797-2.961-20.936-1.105-6.354-.737-13.549.65-19.793 1.893-8.524 6.253-16.418 12.537-21.23 9.787-7.498 22.843-6.615 33.656-1.457 4.529 2.16 8.916 5.034 13.767 5.762 7.073 1.06 13.959-2.568 20.85-4.745 9.381-2.962 19.678-3.182 28.53 1.494 10.035 5.302 17.17 17.27 16.336 30.452-.376 5.972-2.309 11.867-1.625 17.8.693 6.017 3.697 11.053 5.29 16.72 1.462 5.211 2.028 12.072 1.175 18.395a9.88 9.88 0 0 1-9.79 8.559H19.015c-4.747 0-8.9-3.371-9.705-8.058a2.25 2.25 0 0 1-.014-.086Z" fill="#FF9455"/></g><g opacity=".61"><g opacity=".66"><path opacity=".47" d="M120.206 76.71c-.472-5.78-2.745-11.569-6.683-15.706-6.134-6.447-15.415-8.072-23.548-6.582-3.407.624-6.786 1.73-10.274 1.381-5.088-.506-9.569-3.986-14.2-6.538-6.307-3.472-13.534-5.34-20.238-3.83a18.802 18.802 0 0 0-14.575 16.77c-.337 3.89 3.086 10.745 2.005 14.432-1.096 3.74-9.096 15.194-8.899 23.906.168 7.427 1.54 10.475 3.564 13.964a3.662 3.662 0 0 0 3.16 1.828h80.37a3.639 3.639 0 0 0 3.464-2.508c1.116-3.425 1.648-6.668.115-11.407-1.516-4.69 2.604-8.552 4.199-12.919 1.419-3.885 1.887-8.557 1.54-12.79Z" fill="#FF9455"/></g></g></g><path d="m27.772 64.12.638-.508a.715.715 0 0 0 .115-1.004l-9.028-11.38a.712.712 0 0 0-1-.113l-.639.508a.712.712 0 0 0-.115 1.003l9.028 11.38a.712.712 0 0 0 1 .115Z" fill="#F9B361"/><path opacity=".19" d="M28.243 62.942 19.11 51.428c-.143-.182-.213-.382-.2-.531a.66.66 0 0 1 .534.265l9.135 11.514a.666.666 0 0 1 .137.58c-.15-.02-.328-.133-.473-.314Z" fill="#FFF6F7"/><path d="m33.692 61.451.737-.35a.714.714 0 0 0 .339-.951l-6.214-13.138a.714.714 0 0 0-.95-.338l-.737.35a.71.71 0 0 0-.338.95l6.215 13.137a.71.71 0 0 0 .948.34Z" fill="#F9B361"/><path opacity=".19" d="m34.419 60.41-6.287-13.291c-.1-.21-.122-.421-.074-.563.182.033.36.17.459.38l6.287 13.29c.1.21.092.435.002.599-.14-.055-.288-.206-.387-.415Z" fill="#FFF6F7"/><path d="m27.462 64.74.549-.606a.716.716 0 0 0-.049-1.009l-10.74-9.774a.711.711 0 0 0-1.005.05l-.548.604a.716.716 0 0 0 .047 1.01l10.74 9.774a.711.711 0 0 0 1.006-.05Z" fill="#F9B361"/><path opacity=".19" d="m27.738 63.5-10.865-9.89c-.17-.155-.271-.341-.282-.492a.665.665 0 0 1 .57.176l10.863 9.89c.172.154.25.366.23.55-.15.003-.345-.078-.516-.234Z" fill="#FFF6F7"/><path d="m30.764 62.332.683-.445a.716.716 0 0 0 .21-.988L23.75 48.71a.711.711 0 0 0-.985-.21l-.684.446a.712.712 0 0 0-.208.988l7.905 12.189c.214.33.655.424.986.21Z" fill="#F9B361"/><path opacity=".19" d="m31.345 61.203-8-12.333c-.125-.194-.175-.4-.146-.547a.66.66 0 0 1 .506.315l7.998 12.332c.127.195.15.418.083.592-.147-.034-.314-.165-.44-.358h-.001Z" fill="#FFF6F7"/><path d="m27.107 67.802.55-.604a.711.711 0 0 0 .12-.784.714.714 0 0 0-.165-.224l-10.709-9.806a.71.71 0 0 0-1.006.046l-.55.602a.716.716 0 0 0 .045 1.01l10.71 9.805a.712.712 0 0 0 1.006-.045Z" fill="#F9B361"/><path opacity=".19" d="m27.387 66.562-10.836-9.92c-.17-.157-.27-.344-.28-.494a.66.66 0 0 1 .568.178l10.836 9.92c.17.157.249.368.228.553-.15.003-.346-.08-.516-.237Z" fill="#FFF6F7"/><path d="m33.008 62.801.698-.423a.714.714 0 0 0 .24-.981l-7.514-12.435a.711.711 0 0 0-.978-.242l-.698.424a.717.717 0 0 0-.241.98L32.03 62.56a.71.71 0 0 0 .977.241Z" fill="#F9B361"/><path opacity=".19" d="M33.625 61.691 26.023 49.11c-.12-.198-.164-.404-.131-.552a.663.663 0 0 1 .496.332L33.99 61.47a.66.66 0 0 1 .063.594c-.145-.04-.307-.173-.428-.373Z" fill="#FFF6F7"/><path d="m30.384 64.409.65-.496a.716.716 0 0 0 .134-1l-8.793-11.564a.714.714 0 0 0-.999-.135l-.65.495a.715.715 0 0 0-.133 1.001l8.792 11.564a.712.712 0 0 0 .999.135Z" fill="#F9B361"/><path opacity=".19" d="m30.88 63.24-8.895-11.7c-.14-.184-.206-.386-.19-.535a.664.664 0 0 1 .53.276l8.895 11.7c.14.184.18.405.125.585-.148-.025-.325-.142-.465-.326Z" fill="#FFF6F7"/><path d="M31.364 50.064c-.857.559-1.392 1.528-1.432 2.593-.09 2.412-1.54 4.833-3.956 6.167-2.084 1.153-4.404 1.23-6.263.41-.901-.4-1.924-.3-2.746.236l-.39.255c-.47.308-.575.933-.22 1.309l4.219 4.47 6.717 7.337c.268.293.679.334.945.095l3.588-3.227c.377-.34.793-.634 1.239-.877l4.815-2.618c.321-.175.45-.598.302-.989l-2.788-7.284-2.704-7.503c-.187-.519-.83-.7-1.327-.374Z" fill="#F94A3D"/><path d="m22.857 64.01-4.218-4.469a.773.773 0 0 1-.208-.543 2.92 2.92 0 0 0-1.463.473l-.392.255c-.47.306-.574.932-.22 1.308l4.22 4.47 6.716 7.337c.27.293.68.334.945.095l1.57-1.412a.79.79 0 0 1-.233-.177l-6.717-7.337Z" fill="#FF7664"/><path d="M15.388 29.056s-3.6.051-3.785-2.852c-.072-1.142.545-2.204 1.085-3.062.82-1.301 1.836-2.826 2.815-3.982 3.738-4.408 7.23-6.477 12.096-8.494 1.29-.535 4.516-1.345 6.06-.555.522.268.942.76 1.2 1.304.2.426.31.892.272 1.331-.138 1.581-1.94 2.704-3.009 3.58-1.489 1.22-3.01 2.402-4.534 3.578a603.108 603.108 0 0 1-10.301 7.76l-1.024.753c-.189.138-.637.636-.875.638Z" fill="#FFAC79"/><path opacity=".25" d="m16.263 28.417 1.024-.753a603.244 603.244 0 0 0 10.301-7.76 197.57 197.57 0 0 0 4.534-3.579c1.07-.875 2.871-1.998 3.01-3.579.03-.35-.038-.718-.166-1.068-1.64-.532-4.51.2-5.709.697-4.865 2.017-8.357 4.086-12.096 8.495-.979 1.155-1.994 2.681-2.814 3.982-.54.859-1.157 1.921-1.085 3.061.018.274.073.514.146.738.976.415 1.98.405 1.98.405.239-.003.687-.501.875-.639Z" fill="#F97762"/><path d="M15.183 28.528c-.01.28.144.532.386.666 2.307 1.278 15.885 8.056 22.054 11.13 1.237.615 2.637-.47 2.354-1.825-1.502-7.18-4.972-23.57-5.698-25.175-.917-2.026-18.792 6.046-19.096 15.204Z" fill="#FFD98B"/><path d="M15.286 27.534c.018-.098.033-.196.054-.293-.02.097-.036.195-.054.293Zm-.061.433c.012-.1.022-.2.038-.3-.016.1-.026.2-.037.3h-.001Zm.25-1.272c.03-.102.058-.203.09-.304-.032.101-.06.203-.09.304Zm.126-.407c.036-.106.071-.212.112-.318-.04.106-.076.212-.112.318Z" fill="#FFD98B"/><path d="M16.219 27.212c-.01.28.145.531.387.666 2.306 1.279 15.884 8.057 22.053 11.129a1.62 1.62 0 0 0 1.336.06c.026-.189.019-.38-.02-.568-1.501-7.18-4.97-23.57-5.697-25.175-.728-1.61-12.167 3.158-16.985 9.78.286-.394.596-.78.925-1.16-1.18 1.667-1.94 3.446-2 5.268Z" fill="#F9B361"/><path d="M37.914 40.432c-.024-.006-.048-.012-.072-.02.024.008.048.014.072.02ZM15.746 25.881c.043-.11.085-.22.132-.33-.046.11-.09.22-.132.33Zm23.046 14.558c-.028.008-.058.013-.088.02.03-.007.06-.012.088-.02Zm-.208.043a1 1 0 0 1-.09.009c.031-.003.06-.004.09-.009ZM15.211 28.098c0-.019.004-.037.005-.055l-.006.055ZM39.13 40.3Z" fill="#FFD98B"/><path d="M38.705 40.459a1.897 1.897 0 0 0 .087-.02c-.029.008-.059.014-.087.02Zm-23.437-12.82a9.127 9.127 0 0 0-.042.323l.036-.294.006-.03Zm.101-.53c.023-.098.046-.197.071-.294l.035-.12a8.208 8.208 0 0 0-.188.836c.017-.097.033-.194.052-.29l.031-.131Zm22.999 13.389-.088-.002a1.662 1.662 0 0 0 .088.002ZM16.52 24.284l-.018.029a.276.276 0 0 1 .018-.03Zm-.81 1.686c-.043.115-.082.232-.12.348l.01-.03c.036-.106.07-.212.111-.318Zm22.204 14.462c-.024-.006-.048-.012-.072-.02.024.008.048.014.072.02Zm-22.036-14.88c.01-.026.023-.05.034-.076a11.793 11.793 0 0 1-.034.076Z" fill="#FFD98B"/><path d="M32.215 21.11a4.174 4.174 0 0 1-2.25 4.043 4.15 4.15 0 0 1-5.595-1.811 4.174 4.174 0 0 1 1.807-5.608 4.15 4.15 0 0 1 5.594 1.811c.249.487.4 1.019.443 1.564Z" fill="#FF5E4D"/><path d="M31.074 20.968a3.045 3.045 0 0 1-1.634 2.971 3.026 3.026 0 0 1-4.094-1.336 3.044 3.044 0 0 1 .408-3.346 3.029 3.029 0 0 1 5.32 1.71Z" fill="#F94A3D"/><path opacity=".23" d="M37.213 34.622a.433.433 0 1 0-.062-.156c.01.056.032.11.063.157ZM19.988 24.006a.434.434 0 1 0 .73-.47.434.434 0 0 0-.73.47Zm12.526 6.587a.433.433 0 1 0 .727-.472.433.433 0 1 0-.727.473Zm4.407 5.455a.293.293 0 1 0 .492-.317.293.293 0 0 0-.492.317Zm-5.356-3.759a.114.114 0 1 0 .192-.125.114.114 0 0 0-.192.125Zm.925-12.98a.127.127 0 1 0 .213-.14.127.127 0 0 0-.213.14ZM21.551 29.577a.127.127 0 0 0 .212.003.125.125 0 0 0 .021-.096.128.128 0 0 0-.099-.102.128.128 0 0 0-.096.017.129.129 0 0 0-.038.178Zm10.773 6.017c.039.06.118.076.176.038a.127.127 0 0 0-.042-.233.128.128 0 0 0-.096.018.13.13 0 0 0-.038.178v-.001Zm-8.981-15.21a.128.128 0 0 0 .18.043.127.127 0 0 0 .054-.135.128.128 0 0 0-.021-.047.127.127 0 0 0-.231.043.128.128 0 0 0 .018.096Zm-5.192 5.05a.127.127 0 1 0 .213-.14.127.127 0 0 0-.176-.037.129.129 0 0 0-.038.178Zm15.585-10.27a.128.128 0 1 0 .038-.178.13.13 0 0 0-.038.177Zm1.579 19.973a.294.294 0 1 0 .494-.318.294.294 0 0 0-.494.318Zm-14.157-8.416a.147.147 0 0 0 .15.065.144.144 0 0 0 .053-.022.145.145 0 0 0 .043-.203.147.147 0 0 0-.15-.065.147.147 0 0 0-.096.225Zm9.806-11.55Z" fill="#FFA35D"/><path d="M34.734 30.012a3.362 3.362 0 0 0 2.31 2.926c.418.135.859.187 1.297.151.164-.013.323-.042.48-.079-.465-2.186-.933-4.371-1.408-6.555a3.348 3.348 0 0 0-2.013 1.269 3.362 3.362 0 0 0-.666 2.288Z" fill="#FF5E4D"/><path d="M35.558 29.821c.05.621.344 1.197.818 1.601a2.341 2.341 0 0 0 1.708.553c.114-.01.226-.03.335-.055-.308-1.453-.647-3.034-.985-4.59a2.352 2.352 0 0 0-1.876 2.492Z" fill="#F94A3D"/><path d="M21.053 25.783a.145.145 0 0 0-.05.008.203.203 0 0 0-.105.107.522.522 0 0 0-.001.384.513.513 0 0 0 .244.298c.038.018.091.037.149.016.117-.043.186-.262.105-.491a.51.51 0 0 0-.245-.297.228.228 0 0 0-.097-.025Zm.186 1.48a.888.888 0 0 1-.38-.09 1.168 1.168 0 0 1-.58-.67c-.107-.3-.097-.625.026-.887.1-.212.27-.37.477-.444a.845.845 0 0 1 .65.041c.262.125.475.37.582.671.2.563-.027 1.16-.505 1.33a.79.79 0 0 1-.27.048Zm9.999 1.04a.153.153 0 0 0-.05.008.19.19 0 0 0-.104.093.405.405 0 0 0-.002.336c.084.207.276.312.393.275.118-.037.188-.229.107-.43-.071-.175-.228-.281-.344-.281Zm.19 1.293c-.4 0-.8-.26-.964-.662a.91.91 0 0 1 .027-.776.815.815 0 0 1 .477-.388c.475-.15 1.03.13 1.232.622.198.493-.028 1.015-.505 1.163a.882.882 0 0 1-.266.041Zm4.12 6.297a.751.751 0 0 1-.342-.083.73.73 0 0 1-.37-.418.572.572 0 0 1 .365-.73.727.727 0 0 1 .556.05c.341.171.494.557.342.86a.587.587 0 0 1-.414.307.65.65 0 0 1-.137.014Zm-2.06-19.329c-.116 0-.21.042-.243.11-.057.11.043.318.261.428.221.112.442.067.5-.046.032-.067.006-.146-.014-.187a.582.582 0 0 0-.504-.305Zm.27 1.258c-.18 0-.369-.043-.547-.132-.533-.27-.78-.858-.552-1.313.227-.455.847-.605 1.379-.337.246.124.44.319.548.55.12.254.12.532.005.762-.151.302-.476.47-.833.47Z" fill="#390028"/><path d="M25.398 30.031a3.558 3.558 0 0 0-3.143 2.597c1.942.982 4.106 2.068 6.252 3.142a3.576 3.576 0 0 0-.512-4.898 3.56 3.56 0 0 0-2.596-.84Z" fill="#FF5E4D"/><path d="M25.498 30.953a2.735 2.735 0 0 0-2.414 1.996c1.491.752 3.155 1.587 4.801 2.412a2.732 2.732 0 0 0 .27-2.922 2.744 2.744 0 0 0-1.595-1.362 2.733 2.733 0 0 0-1.062-.124Z" fill="#F94A3D"/><path d="m25.373 91.978-8.166-3.528a2.279 2.279 0 0 1-1.377-2.132c.005-.3.068-.596.187-.872l2.342-5.448 12.57 5.432-2.252 5.232a2.51 2.51 0 0 1-3.304 1.316Z" fill="#390028"/><path d="M18.352 80.027c.493-1.148 3.704-.862 7.174.637 3.468 1.5 5.88 3.643 5.387 4.791-.494 1.147-3.705.861-7.175-.638-3.469-1.499-5.88-3.643-5.387-4.79h.001Z" fill="#F8F8EE"/><path d="M22.845 81.709c.148-.344 1.11-.26 2.15.19 1.038.45 1.76 1.092 1.613 1.435-.148.345-1.11.259-2.149-.19s-1.761-1.092-1.614-1.435Z" fill="#F94A3D"/><path opacity=".11" d="M25.473 81.698a.11.11 0 0 1-.105-.08c-.063-.22-.161-.493-.37-.638a.472.472 0 0 0-.357-.07.327.327 0 0 0-.217.145.114.114 0 0 1-.116.05.108.108 0 0 1-.086-.095c-.013-.104-.026-.212-.07-.293-.033-.06-.1-.117-.161-.104-.053.008-.107.055-.17.145a1.503 1.503 0 0 0-.214.474c-.014.059-.077.098-.132.08a.107.107 0 0 1-.082-.09.11.11 0 0 1 .002-.042c.049-.192.133-.381.247-.546.063-.09.163-.214.315-.237.148-.025.301.062.387.213a.684.684 0 0 1 .06.162.6.6 0 0 1 .192-.078.697.697 0 0 1 .527.106c.268.188.388.523.455.759a.111.111 0 0 1-.01.083.109.109 0 0 1-.066.052.08.08 0 0 1-.03.004ZM21.82 80.516a.226.226 0 0 1-.224-.205.228.228 0 0 1 .016-.109.227.227 0 0 1 .297-.118.23.23 0 0 1 .117.296.214.214 0 0 1-.122.12.21.21 0 0 1-.085.016Zm-1.72.073a.229.229 0 0 1-.209-.142.227.227 0 0 1 .212-.31c.03.001.06.008.087.02a.218.218 0 0 1 .133.232.228.228 0 0 1-.222.2Zm1.188.522a.123.123 0 0 0-.122.12.125.125 0 0 0 .169.116.121.121 0 0 0 .073-.137.122.122 0 0 0-.12-.1Zm0 .462a.34.34 0 0 1-.34-.311.342.342 0 0 1 .214-.346.34.34 0 1 1 .127.657ZM28.865 84.388a.223.223 0 0 1-.207-.316.225.225 0 0 1 .21-.134c.03 0 .059.007.086.019a.222.222 0 0 1 .135.21c0 .03-.006.059-.018.086a.22.22 0 0 1-.206.135Zm-1.612-.106h.003-.004Zm-.107.179a.221.221 0 0 1-.21-.143.22.22 0 0 1 .004-.172.22.22 0 0 1 .208-.136.227.227 0 0 1 .205.314l-.001.002a.226.226 0 0 1-.206.135Zm1.187.522a.12.12 0 0 0-.112.167c.012.03.035.054.065.066a.12.12 0 0 0 .093.003.117.117 0 0 0 .066-.066.121.121 0 0 0-.112-.17Zm0 .462a.341.341 0 0 1-.293-.503.342.342 0 0 1 .167-.154.341.341 0 1 1 .126.657Z" fill="#390028"/><path d="m128.672 35.065-27.743-10.22a1.32 1.32 0 0 1-.736-.68 1.317 1.317 0 0 1-.04-1.003 1.313 1.313 0 0 1 1.175-.858c.171-.007.343.02.504.08l27.742 10.22a1.298 1.298 0 0 1 .736.68 1.298 1.298 0 0 1 .041 1.002 1.299 1.299 0 0 1-.678.738 1.308 1.308 0 0 1-1.001.04Z" fill="#470B1B"/><path d="m129.144 32.454-5.66-2.085a.665.665 0 0 0-.345-.033l-2.445.45a.691.691 0 0 1-.6-.197l-2.052-2.153a.668.668 0 0 0-.254-.165l-15.532-5.722c-.28-.103-.445-.358-.367-.569l.486-1.326c.077-.211.367-.298.648-.195l26.888 9.905c.28.103.445.358.367.57l-.486 1.326c-.078.21-.367.297-.648.194Z" fill="#FFD98B"/><path d="m126.984 36.398-25.704-9.47a.642.642 0 0 1-.366-.338.663.663 0 0 1-.02-.5l.22-.601a.655.655 0 0 1 .837-.388l25.704 9.469c.337.125.512.5.386.839l-.22.601a.663.663 0 0 1-.338.368.654.654 0 0 1-.499.02Z" fill="#F94A3D"/><path opacity=".74" d="m127.798 35.237-26.388-9.72a.292.292 0 0 1-.16-.367.29.29 0 0 1 .36-.175l26.387 9.72c.066.03.119.085.148.152.028.068.03.143.005.212a.289.289 0 0 1-.352.178Z" fill="#EC6565"/><path d="m121.858 40.267-19.034-7.046c-2.383-.882-3.802-3.008-3.168-4.748l.793-2.173 27.664 10.241-.79 2.173c-.634 1.74-3.08 2.436-5.465 1.553Z" fill="#FFAC79"/><path opacity=".25" d="m128.114 36.541-1.43-.529c-.842 1.44-3.08 1.962-5.27 1.15l-15.993-5.918c-2.189-.812-3.561-2.67-3.277-4.317l-1.696-.627-.792 2.173c-.634 1.74.785 3.866 3.169 4.748l19.034 7.046c2.383.882 4.83.187 5.464-1.553l.791-2.172Z" fill="#F97762"/><path d="m131.04 31.091-29.402-10.83c2.102-5.735 8.746-8.565 14.839-6.32l7.34 2.704c6.092 2.244 9.326 8.711 7.223 14.446Z" fill="#FFB6AF"/><path opacity=".08" d="m131.04 31.091-29.402-10.83c2.102-5.735 8.746-8.565 14.839-6.32l7.34 2.704c6.092 2.244 9.326 8.711 7.223 14.446Z" fill="#FFF6F7"/><path d="m131.04 31.091-29.402-10.83c2.102-5.735 8.746-8.565 14.839-6.32l7.34 2.704c6.092 2.244 9.326 8.711 7.223 14.446Z" fill="#FFAC79"/><path opacity=".25" d="m127.846 19.075.05.069c2.227 3.09-.961 7.2-4.53 5.885l-13.203-4.863c-2.604-.959-2.966-4.562-.559-5.945a9.168 9.168 0 0 1 2.835-1.047c-4.752-.095-9.16 2.61-10.801 7.087l29.402 10.83c1.571-4.286.162-8.98-3.194-12.016Z" fill="#F97762"/><path d="M119.043 18.194c-.148 0-.328-.03-.509-.083-.197-.058-.828-.277-.717-.652.114-.376.76-.215.955-.158.196.058.828.277.717.653-.031.107-.133.236-.43.24h-.016Zm4.096 2.897c-.147 0-.328-.03-.509-.083-.197-.058-.827-.276-.717-.652.032-.108.132-.236.431-.24.167.008.337.026.524.082.196.058.827.277.717.653-.031.107-.132.236-.43.24h-.016Zm-.286-2.8c-.2 0-.413-.054-.511-.083-.196-.058-.827-.277-.717-.652a.302.302 0 0 1 .151-.18c.238-.13.676-.016.804.022.196.058.828.276.718.652l-.001.002c-.057.185-.244.24-.444.24Zm-8.375-.35c-.148 0-.328-.03-.509-.082-.196-.058-.826-.278-.717-.653.032-.107.132-.236.431-.24.159.005.338.027.524.082.197.058.828.277.717.653-.031.108-.132.236-.43.24h-.016Zm1.161-2.389c-.148 0-.328-.03-.509-.083-.196-.057-.827-.277-.717-.652a.303.303 0 0 1 .151-.18c.238-.13.677-.016.804.022.196.058.828.276.718.653-.032.107-.134.236-.431.24h-.016Z" fill="#F8F8EE"/><path d="m129.416 59.337-10.621 3.914a2.016 2.016 0 0 1-2.585-1.197l-.788-2.146a2.03 2.03 0 0 1 1.196-2.592l10.62-3.915a2.018 2.018 0 0 1 2.587 1.198l.787 2.146a2.029 2.029 0 0 1-1.196 2.592Z" fill="#fff"/><path opacity=".11" d="M118.829 61.058a.102.102 0 0 1-.045-.01c-.186-.085-.432-.273-.529-.483a.489.489 0 0 1-.001-.399.325.325 0 0 1 .42-.174.443.443 0 0 1 .006-.115c.048-.234.296-.357.504-.335.136.013.246.068.353.121.092.046.18.091.273.099a.11.11 0 0 1 .1.118.113.113 0 0 1-.039.074.11.11 0 0 1-.079.027c-.137-.013-.247-.068-.354-.121-.092-.046-.18-.092-.273-.099-.115-.009-.247.048-.271.16a.47.47 0 0 0 .07.273c.013.023.017.05.011.076a.109.109 0 0 1-.184.055c-.08-.081-.2-.147-.271-.131-.029.008-.052.03-.068.065a.249.249 0 0 0-.021.107c0 .037.008.073.023.107.069.151.269.306.421.375.054.026.08.09.054.146a.103.103 0 0 1-.04.047.11.11 0 0 1-.06.017Zm-.478 1.226a.113.113 0 0 1-.044-.009.86.86 0 0 1-.386-.335c-.068-.107-.092-.208-.071-.3.039-.17.2-.25.356-.237.133.01.246.08.337.136.05.032.067.099.036.152a.112.112 0 0 1-.151.035c-.09-.055-.165-.099-.24-.104-.059-.004-.115.022-.125.067-.006.031.008.08.042.135.07.11.17.197.289.25.023.01.042.027.053.05a.108.108 0 0 1 .01.072.107.107 0 0 1-.038.063.107.107 0 0 1-.068.025Zm3.903-3.629a.104.104 0 0 1-.055-.014.425.425 0 0 1-.199-.423.395.395 0 0 1 .324-.326c.1-.016.212.01.338.08.143.078.272.187.374.316a.108.108 0 0 1 .022.08.097.097 0 0 1-.013.041.114.114 0 0 1-.066.052.107.107 0 0 1-.084-.01.117.117 0 0 1-.032-.028 1.023 1.023 0 0 0-.305-.26.363.363 0 0 0-.203-.055.177.177 0 0 0-.14.145.207.207 0 0 0 .093.198c.021.012.037.03.046.053a.109.109 0 0 1-.1.151Zm.705 1.856a.11.11 0 0 1-.091-.05 3.184 3.184 0 0 1-.271-.502c-.08-.186-.03-.285.025-.337a.265.265 0 0 1 .173-.06.86.86 0 0 1 .199.01.415.415 0 0 1 .116-.339c.139-.132.356-.169.605-.105.068.018.137.041.205.065.102.035.198.069.296.082a.107.107 0 0 1 .095.121.098.098 0 0 1-.012.041.113.113 0 0 1-.028.033.106.106 0 0 1-.081.022c-.121-.015-.233-.054-.343-.093-.062-.02-.124-.042-.186-.059-.082-.022-.284-.059-.399.051-.042.04-.061.117-.047.185.006.03.022.057.044.077l.035.017c.051.026.073.087.051.14a.105.105 0 0 1-.056.058.108.108 0 0 1-.08.003.706.706 0 0 0-.404-.091c-.028 0-.036.005-.036.005.004 0 .004.03.028.087.071.163.156.32.253.469a.108.108 0 0 1-.032.152.102.102 0 0 1-.059.018Zm3.484-2.978a.107.107 0 0 1-.095-.055 1.597 1.597 0 0 1-.188-.544c-.016-.105-.027-.258.062-.375.09-.116.256-.16.415-.108.052.016.1.04.145.067a.539.539 0 0 1 .081-.175.667.667 0 0 1 .436-.276c.317-.05.618.107.818.227a.11.11 0 0 1 .039.15.112.112 0 0 1-.15.039c-.173-.103-.432-.234-.673-.199a.44.44 0 0 0-.289.184.309.309 0 0 0-.056.242.107.107 0 0 1-.006.066.11.11 0 0 1-.045.049.104.104 0 0 1-.064.016.108.108 0 0 1-.062-.025c-.076-.064-.155-.13-.24-.156-.061-.019-.139-.015-.176.033-.028.037-.036.105-.019.207.025.163.081.326.161.47a.11.11 0 0 1 .01.083.104.104 0 0 1-.051.066.104.104 0 0 1-.053.014Zm1.579.916a.108.108 0 0 1-.082-.037 1.105 1.105 0 0 1-.249-.479c-.045-.183.003-.335.125-.395a.323.323 0 0 1 .198-.02c.238.038.463.139.656.289a.111.111 0 0 1 .042.073.108.108 0 0 1-.095.122.11.11 0 0 1-.081-.023 1.21 1.21 0 0 0-.556-.243c-.035-.006-.057-.006-.067-.002-.017.008-.028.07-.01.148a.888.888 0 0 0 .2.384.106.106 0 0 1 .028.079.1.1 0 0 1-.011.041.1.1 0 0 1-.026.034.102.102 0 0 1-.072.029Z" fill="#390028"/><path d="m129.068 54.616-13.059 4.813a2.015 2.015 0 0 1-2.585-1.199l-.422-1.147a2.034 2.034 0 0 1 .065-1.543 2.023 2.023 0 0 1 1.131-1.05l13.059-4.812a2.016 2.016 0 0 1 2.585 1.198l.42 1.147a2.025 2.025 0 0 1-1.194 2.592Z" fill="#390028"/><path opacity=".3" d="m114.432 54.405 1.811 4.938 1.2-.443-1.811-4.938-1.2.443Zm3.65-1.346 1.811 4.938 1.2-.443-1.811-4.938-1.2.444Zm3.85-1.419 1.812 4.938 1.2-.444-1.811-4.936-1.201.442Zm3.773-1.39 1.811 4.937 1.202-.442-1.812-4.937-1.201.441Z" fill="#F94A3D"/><path d="m129.793 81.652-9.14-7.961a1.006 1.006 0 0 0-1.639.837c.013.262.127.507.318.686l9.14 7.962a1.005 1.005 0 0 0 1.39-.126 1.01 1.01 0 0 0-.069-1.398Z" fill="#470B1B"/><path d="m112.848 99.56-7.393-6.438c-.502-.438-.565-1.211-.142-1.771l12.185-16.175c.468-.62 1.339-.738 1.896-.252l9.491 8.266c.557.485.563 1.367.016 1.917l-14.284 14.349c-.495.497-1.267.543-1.769.105Z" fill="#fff"/><path d="m113.969 79.86-4.749 6.303 9.978 8.69 5.566-5.59-10.795-9.403Zm14.066 5.955-11.162-9.723a1.032 1.032 0 0 1-.102-1.455l.759-.876a1.03 1.03 0 0 1 1.452-.102l11.163 9.724c.428.373.474 1.024.102 1.454l-.761.876a1.027 1.027 0 0 1-1.451.102Z" fill="#FF7664"/><path d="M118.711 88.93c-.935 1.079-2.524 1.231-3.546.34-1.022-.89-1.093-2.487-.157-3.566.935-1.079 2.523-1.231 3.545-.34 1.023.89 1.092 2.486.158 3.566Z" fill="#F94A3D"/><path d="M12.126 42.973c0 .374-.308.679-.687.679a.684.684 0 0 1-.689-.68c0-.375.308-.679.689-.679.378 0 .687.304.687.68ZM38.263 3.056c0 .375-.309.679-.688.679a.68.68 0 0 1-.688-.68c0-.375.307-.679.688-.679.38 0 .688.304.688.68Zm-18.57 98.503c0 .376-.31.68-.689.68a.673.673 0 0 1-.485-.197.68.68 0 0 1-.203-.483c0-.375.308-.679.689-.679.378 0 .687.304.687.679Zm88.956 1.992a.685.685 0 0 1-.95.628.67.67 0 0 1-.372-.367.685.685 0 0 1-.054-.261.685.685 0 0 1 .688-.679.678.678 0 0 1 .634.417.694.694 0 0 1 .054.262Zm33.932.459a.685.685 0 0 1-.688.679.679.679 0 1 1 0-1.358.688.688 0 0 1 .688.679Zm-42.11-98.35c0 .375-.308.68-.688.68a.68.68 0 0 1-.687-.68c0-.375.308-.68.687-.68.38 0 .688.305.688.68ZM6.801 1.216c0 .375-.308.68-.687.68a.681.681 0 0 1-.687-.68c0-.375.307-.68.687-.68a.68.68 0 0 1 .687.68Zm128.902 68.325c0 .375-.308.68-.688.68a.684.684 0 0 1-.688-.68c0-.375.308-.68.688-.68.38 0 .688.305.688.68Zm-22.927-25.464a.35.35 0 0 1-.213.315.341.341 0 0 1-.262 0 .335.335 0 0 1-.213-.315c0-.187.154-.34.344-.34.189 0 .344.153.344.34Zm34.811 5.395a.342.342 0 0 1-.344.34.341.341 0 0 1-.242-.58.345.345 0 0 1 .586.24Zm-7.681-17.923a.69.69 0 0 1-.426.63.682.682 0 0 1-.262.05.68.68 0 0 1-.634-.419.683.683 0 0 1 .634-.94.68.68 0 0 1 .688.678v.001ZM43.001 51.822a.494.494 0 0 1-.686.455.492.492 0 0 1-.307-.455c0-.27.221-.49.496-.49s.497.22.497.49Zm-28.888 18.64a.495.495 0 0 1-.846.348.497.497 0 0 1-.148-.349c0-.27.222-.491.498-.491.274 0 .495.22.495.491Z" fill="#F9B361"/><path d="m93.355 58.127.175.19c-.058-.065-.117-.127-.175-.19Zm-.583-.614.162.168-.162-.168Zm-.553-.554.075.073-.075-.073Zm2.53 2.754.073.09-.074-.09Zm4.223 5.864c.082.128.163.259.246.39l-.246-.39Zm.747 1.204.222.363-.222-.363Zm-1.454-2.297c.072.109.147.223.219.335-.073-.112-.147-.226-.22-.335Zm-2.242-3.167.214.283-.214-.283Zm.696.936c.06.084.122.167.184.252l-.184-.252Zm.861 1.213.064.094-.064-.094Zm-3.582-4.628.13.147-.13-.147Zm-4.97-4.52.133.09c-.044-.032-.088-.06-.133-.09Zm-.779-.493.108.065-.108-.065Zm-.43-.242.093.05-.094-.05Zm1.69 1.07.075.053-.075-.053Z" fill="#FFAC79"/><path d="m91.495 64.374 3.464 9.233c2.687-2.069 5.708-5.229 5.708-5.229a65.424 65.424 0 0 0-.727-1.233l-.22-.364c-.471-.775-.956-1.54-1.455-2.297a58.492 58.492 0 0 0-2.028-2.884l-.214-.283a69.049 69.049 0 0 0-.46-.593c-.062-.08-.126-.163-.189-.242a43.76 43.76 0 0 0-.551-.679 43.091 43.091 0 0 0-.695-.817l-.13-.148c-.154-.175-.31-.35-.468-.52l-.174-.191c-.143-.152-.283-.302-.422-.446l-.162-.168a30.134 30.134 0 0 0-.478-.481l-.075-.074c-.18-.175-.363-.349-.547-.52-.03-.027-.06-.053-.09-.082a27.185 27.185 0 0 0-1.459-1.242l-.086-.068c-.286-.22-.578-.433-.876-.639-.045-.03-.089-.059-.132-.09-.094-.06-.185-.123-.275-.18l-.13-.083c-.091-.058-.18-.111-.267-.164l-.108-.066c-.116-.067-.228-.131-.337-.191a10.26 10.26 0 0 0-.316-.168l-.135-.068a8.02 8.02 0 0 0-.415-.194c-.047-.021-.095-.043-.14-.061l-.065-.027a10.125 10.125 0 0 0-.328-.127h-.003c3.242 1.941 4.937 5.486 4.985 11.386Z" fill="#364CC9"/><path d="m97.053 79.192-2.095-5.585-3.463-9.233c-.016-1.844-.19-3.458-.525-4.865-.734-3.094-2.232-5.187-4.46-6.52v-.002c-2.398-1.434-5.638-1.997-9.704-1.964l-20.823.17c-2.319.017-4.464.809-6.222 2.144-1.54 1.168-2.769 2.764-3.578 4.613L34.337 77.99a2.285 2.285 0 0 0 1.362 3.368l8.729 2.379 1.142 32.484 46.306-.011 1.54-23.014 1.21-1.864 1.372-2.115c1.905-2.935 2.302-6.705 1.055-10.026Z" fill="#4D5DDA"/><path opacity=".27" d="m58.816 74.311.727 16.602-5.03-4.152 4.303-12.45Z" fill="#353535"/><path d="M98.82 43.177c-.507-1.77-1.621-3.176-2.831-4.518 1.022-2.458 1.168-6.081-1.462-9.344l-3.255-3.363a27.488 27.488 0 0 0-.08-2.479 14.932 14.932 0 0 0-.553-2.917l-.53-3.454c-1.142-7.42-6.5-12.53-15.664-11.113l-1.084.117c-.925-.199-1.859-.344-2.806-.383-2.227-.093-4.51.345-6.422 1.491-1.325.794-2.405 1.885-3.315 3.114-1.545-2.599-4.368-4.346-7.606-4.346-4.89 0-8.856 3.975-8.856 8.877a8.871 8.871 0 0 0 7.161 8.71c-1.619 1.299-3.22 2.63-4.2 4.49-1.237 2.345-1.544 5.209-.66 7.726.636 1.812 1.836 3.627 1.372 5.49-.261 1.046-1.012 1.886-1.607 2.783-.596.899-1.06 2.032-.67 3.036.518 1.332 2.195 1.712 3.618 1.808 2.142.144 4.293.077 6.44.009 7.17-.225 14.335-.485 21.492-.869 1.886 1.923 9.005 4.577 9.005 4.577l4.644-.921c1.875-.142 1.191-2.193 1.04-4.65 1.558-.13 3.114-.267 4.671-.418.5-.048 1.022-.103 1.447-.373.957-.602 1.024-1.992.712-3.08Z" fill="#390028"/><path d="M86.497 22.03c-.684.084-1.365-.136-1.824-.607l-1.585-1.62c-.573.09-.032 2.744-.597 2.785-4.28.305-8.286-.75-11.344-2.761-.268 4.15-2.16 7.377-4.874 7.758l-3.307.6-1.836.21c-2.52.29-4.343 2.592-4.055 5.116.287 2.525 2.585 4.353 5.104 4.064l.12-.014v16.855c0 3.82 3.118 6.946 6.93 6.946h2.968c3.812 0 6.93-3.126 6.93-6.946V48.9c5.702-.886 9.74-6.125 9.078-11.922l-1.708-14.947Z" fill="#FFAC79"/><path opacity=".32" d="m79.398 47.378-2.408.277c-5.879.674-11.191-3.555-11.863-9.448l-.11-.958-1.003.116.269 2.359a10.775 10.775 0 0 0 2.916 6.224c-.46 3.183 1.666 6.185 4.849 6.769 2.883.53 5.657-1.105 6.674-3.75 4.332-.506 7.758-3.52 9.02-7.425-1.571 3.116-4.623 5.41-8.344 5.836Z" fill="#FF755F"/><path d="M60.236 34.62a.436.436 0 0 1-.41-.585.439.439 0 0 1 .168-.217l1.29-.864-1.525-1.661a.44.44 0 0 1 .341-.734.437.437 0 0 1 .304.141l1.87 2.038a.437.437 0 0 1-.08.66l-1.716 1.15a.432.432 0 0 1-.242.073Zm18.442 11.577a.435.435 0 0 1-.311-.13c-.974-.992-2.259-.401-2.311-.375a.437.437 0 0 1-.592-.54.44.44 0 0 1 .212-.25c.077-.038 1.897-.893 3.313.549a.438.438 0 0 1-.311.746Zm.09-10.947a.328.328 0 0 1-.238-.547.328.328 0 0 1 .217-.109l1.325-.087c.737-.048 1.413-.335 1.903-.806.473-.458.713-1.035.674-1.626a.422.422 0 0 0-.151-.289.744.744 0 0 0-.525-.163c-.918.06-1.726-.521-1.823-1.329l-.44-3.664a.33.33 0 0 1 .528-.3.324.324 0 0 1 .122.22l.44 3.665c.055.453.568.793 1.13.753a1.41 1.41 0 0 1 1 .324c.224.196.356.46.374.74.05.788-.259 1.548-.874 2.142-.6.58-1.422.93-2.316.989l-1.325.087h-.02Z" fill="#FF755F"/><path d="M75.35 24.058c-.347-.073-.749.053-1.145.15-.397.109-.798.207-1.15.28-.351.073-.759.142-1.165.202-.403.067-.824.114-1.109.316-.276.19-.323.584.129.96.426.37 1.403.664 2.57.426 1.163-.245 1.929-.902 2.16-1.407.251-.524.042-.862-.29-.927Zm7.893 1.066c.268-.145.63-.142.982-.158.34-.008.68-.026 1.018-.055.34-.03.678-.07 1.014-.12.35-.045.71-.11.993-.013.275.089.412.4.131.825-.262.41-.997.896-2.02.987-1.021.085-1.815-.269-2.133-.629-.334-.37-.245-.702.015-.838Z" fill="#390028"/><path d="M62.824 35.62a1.066 1.066 0 0 1-1.042 1.14 1.062 1.062 0 0 1-1.08-1.103 1.066 1.066 0 0 1 1.043-1.027 1.06 1.06 0 0 1 1.079.99Z" fill="#fff"/><path d="M78.784 39.031c-1.704 0-2.897-.384-3.554-1.148a2.212 2.212 0 0 1-.488-1.87.304.304 0 1 1 .59.145 1.594 1.594 0 0 0 .365 1.335c.471.54 1.61 1.13 4.37.862a.311.311 0 0 1 .333.275.306.306 0 0 1-.275.332c-.477.046-.923.07-1.34.07Z" fill="#FF755F"/><path d="M88.253 29.69c-.162-.87-.68-2.146-2.338-2.32a2.486 2.486 0 0 0-.76.035c-1.087.218-1.78 1.152-2.178 1.94a1.008 1.008 0 0 0 .136 1.103c.111-.794.79-1.43 1.648-1.48.974-.056 1.807.66 1.863 1.602.005.075-.005.146-.01.218.402-.04.803-.097 1.201-.17a.613.613 0 0 0 .477-.688c-.01-.08-.023-.16-.039-.24Z" fill="#fff"/><path d="M84.761 28.968c-.857.05-1.537.685-1.649 1.48a.867.867 0 0 0 .535.303c1.07.157 2.127.122 2.966.038.006-.073.015-.145.011-.22-.056-.94-.89-1.658-1.863-1.6Z" fill="#390028"/><path d="M78.16 30.432c-.171-1.084-.793-2.682-2.96-2.964a3.46 3.46 0 0 0-.997.013c-1.438.226-2.388 1.352-2.949 2.31-.413.71.007 1.63.815 1.766.208.035.416.06.622.086a1.908 1.908 0 0 1-.071-.464c-.029-1.165.985-2.136 2.265-2.167 1.28-.031 2.34.889 2.368 2.054.006.188-.026.367-.072.541.128-.015.254-.033.362-.047a.766.766 0 0 0 .656-.831c-.01-.1-.023-.199-.039-.297Z" fill="#fff"/><path d="M74.885 29.012c-1.28.031-2.294 1.002-2.266 2.168.005.16.03.314.072.463 1.771.217 3.456.093 4.49-.036.046-.174.077-.353.072-.54-.028-1.166-1.088-2.087-2.368-2.055Z" fill="#390028"/><path d="m95.344 51.886-.214.125-.588-.73.802.605Zm22.094 31.75-2.802-10.724-7.731-26.484a9.422 9.422 0 0 0-.11-.373l-.209-.718-.036.021a10.775 10.775 0 0 0-4.471-5.325l-6.004-3.626-3.042-1.423c-.9-.421-3.296-1.437-4.199.072-.559 1.507 1.577 2.403 2.368 2.785l4.293 2.071s-2.113-.252-3.679.678c-1.137.674-1.68 2.034-1.397 3.33l.103.472.155-.114a5.006 5.006 0 0 1 3.3-.949l1.35.096s-4.658-.334-5.173 1.91c-.514 2.246.494 2.327.494 2.327s2.327-1.37 4.324-.326c0 0-6.22-.867-5.813 2.78.253 2.264 2.82 3.596 4.732 4.282l3.35 17.288a40.02 40.02 0 0 1-2.282 1.922l2.094 5.584c1.247 3.321.85 7.092-1.055 10.026l-1.373 2.115 11.409 2.588c.341.1.69.178 1.042.236l.709.16.027-.069a8.374 8.374 0 0 0 4.186-.775 8.634 8.634 0 0 0 4.532-3.911 8.663 8.663 0 0 0 .908-5.925Z" fill="#FFAC79"/><path opacity=".51" d="m94.816 59.2 6.675-3.855-7.516-.702" fill="#FF8970"/><path d="M95.953 48.075a3.958 3.958 0 0 0-1.231-.56 4.988 4.988 0 0 0-1.367-.172c-.46.019-.921.074-1.37.203-.448.116-.88.3-1.303.5l-.014.005a.327.327 0 0 1-.439-.409.328.328 0 0 1 .16-.186l.007-.003c.466-.205.94-.39 1.438-.507a6.413 6.413 0 0 1 1.52-.184 5.583 5.583 0 0 1 1.52.233c.494.153.955.356 1.395.69a.249.249 0 0 1 .05.35.251.251 0 0 1-.346.055l-.02-.015Zm-.173-4.323a4.016 4.016 0 0 0-1.349-.255 5.075 5.075 0 0 0-1.378.16c-.446.13-.883.295-1.287.528-.41.22-.786.502-1.15.795l-.012.01a.328.328 0 0 1-.533-.291.33.33 0 0 1 .12-.221l.013-.008c.408-.303.83-.587 1.29-.809a6.313 6.313 0 0 1 1.439-.513 5.55 5.55 0 0 1 1.522-.106c.512.04 1.004.139 1.494.362a.193.193 0 0 1 .095.25.193.193 0 0 1-.246.106l-.018-.008Z" fill="#FF755F"/><path opacity=".32" d="m97.21 71.661 3.338 11.974-4.318-11.067.98-.907Z" fill="#FF755F"/><path d="m71.507 95.663 11.985 1.168a1.992 1.992 0 0 0 1.46-.447 2 2 0 0 0 .718-1.349l2.606-26.672a2.002 2.002 0 0 0-1.792-2.186L74.498 65.01a1.99 1.99 0 0 0-1.46.446 2 2 0 0 0-.719 1.35l-2.605 26.672a2.005 2.005 0 0 0 1.047 1.96c.231.124.485.2.746.226Z" fill="#390028"/><path opacity=".47" d="m82.186 69.497 3.497.35a.843.843 0 0 0 .735-1.373.845.845 0 0 0-.567-.307l-3.497-.35a.843.843 0 0 0-.888.759.847.847 0 0 0 .72.921Z" fill="#E1E2FE"/><path d="M85.264 68.957c-.025.256.135.481.36.504.223.023.425-.166.451-.423.025-.255-.136-.481-.359-.503-.223-.023-.427.166-.452.422Z" fill="#390028"/><path d="M90.682 84.277c-.305-.663-.965-.971-1.536-.782l1.134-.511c.696-.314.99-1.255.652-2.092a1.735 1.735 0 0 0-.715-.847l.003-.002c.705-.293 1.02-1.222.7-2.067-.32-.842-1.159-1.293-1.862-1l-.653.27c.705-.293 1.02-1.223.7-2.066-.318-.844-1.157-1.294-1.863-1.002L76.294 78.72c-.248.103-4.541-.007-4.976-3.201l-.782 1.177c-.84.463-1.368 1.87-1.935 3.294a15.988 15.988 0 0 0-.715 2.339l-13.078 4.096-18.133-4.781-7.484 16.902c-2.252 5.975 1.196 12.816 7.7 15.28 3.205 1.213 6.57.933 9.238-.481.85-.345 1.662-.781 2.42-1.3l22.848-15.72-.018-.088c6.362.721 15.879-7.736 17.283-9.246l1.532-.813c.603-.32.822-1.175.488-1.901Z" fill="#FFAC79"/><path d="M83.181 79.663a.438.438 0 0 1-.38-.437.44.44 0 0 1 .272-.406l5.558-2.305a.438.438 0 0 1 .573.575.439.439 0 0 1-.237.238l-5.558 2.305a.433.433 0 0 1-.228.03Zm.834 3.204a.44.44 0 0 1-.107-.843l5.557-2.305a.438.438 0 0 1 .573.575.44.44 0 0 1-.238.237l-5.557 2.305a.434.434 0 0 1-.228.03Zm-.002 3.448a.441.441 0 0 1-.124-.836l5.48-2.505a.44.44 0 0 1 .514.703.437.437 0 0 1-.149.097l-5.48 2.505a.43.43 0 0 1-.241.036Z" fill="#FF755F"/><path opacity=".28" d="m54.796 86.422-3.785-1-10.454 5.537 14.239-4.537Z" fill="#FF755F"/></svg>