<svg xmlns="http://www.w3.org/2000/svg" viewBox="0 0 1412.5 861.32"><defs><style>.cls-3{fill:none;stroke:#fff;stroke-miterlimit:10;stroke-width:.5px}</style></defs><g id="Layer_2" data-name="Layer 2"><g style="opacity:.75" id="Layer_1-2" data-name="Layer 1"><g style="isolation:isolate"><path class="cls-3" d="M2 265.17c-6.87-52 7.44-97 36.22-133.89 24.5-31.43 59.46-57 101.14-76.82 36.08-17.13 77.55-30.09 122.56-39C301.7 7.61 344.86 2.8 390.58 1a1142.79 1142.79 0 0 1 152.05 4.71 1388.25 1388.25 0 0 1 138 20.41c43.8 8.7 88.15 19.62 131.76 32.49s88.44 28.29 133.16 46.27l-11.41 30.83a1269.67 1269.67 0 0 0-130.71-46.59A1284.76 1284.76 0 0 0 673.55 57.9a1190.74 1190.74 0 0 0-136.23-17.37 987.07 987.07 0 0 0-149.84.85c-44.92 3.82-87.26 10.91-126.24 21.26C217.31 74.3 177 90.29 142 110.64c-40.2 23.4-73.68 52.81-96.86 88.06C18.09 239.88 5.1 289 12.45 344.54Z"/><path class="cls-3" d="m811.21 92.18-.21-.08-.24-.07-.24-.07-.24-.07c.32-1.06.74-2.47 1-3.53l1.11-3.74c.35-1.18.82-2.74 1.17-3.91s.83-2.79 1.18-4l1.2-4 1.17-3.95c.34-1.15.8-2.68 1.14-3.82s.75-2.53 1.08-3.62l.24.08.24.07.24.07.25.08q-4.54 15.27-9.09 30.56Z"/><path class="cls-3" d="M674 58.75c2.26-10.64 4.73-21.24 7.11-31.86q17.89 3.56 35.48 7.51t34.75 8.23q17.19 4.27 34.19 9t33.82 9.73q-4.56 15.29-9.1 30.57-16.56-5-33.29-9.58t-33.68-8.7q-17-4.14-34.28-7.85t-35-7.05Zm137.21 33.43.19-.63.2-.67.2-.69.21-.71.21-.7.21-.7.2-.66.19-.63.86-2.91c.28-.93.65-2.17.92-3.09s.68-2.26 1-3.22.69-2.3 1-3.29l1-3.3 1-3.25.93-3.14c.27-.89.62-2.08.89-3q15.51 4.67 30.95 9.7t30.83 10.48q15.52 5.45 31 11.27t31.31 12.18q-5.7 15.47-11.42 30.91-15.33-6.44-30.66-12.4T872 112.33q-15.15-5.46-30.37-10.5t-30.42-9.65Z"/><path class="cls-3" d="M530.7 41q2.61-17.55 5.23-35.11 18.33 1.62 36.75 3.79 18.11 2.13 36.33 4.79 18 2.61 36.07 5.74 17.88 3.09 36 6.67c-2.38 10.62-4.85 21.22-7.11 31.86q-17.85-3.3-35.52-6-17.86-2.78-35.6-5-18-2.25-35.86-3.91-18.2-1.73-36.29-2.83Z"/><path class="cls-3" d="M530.7 41h-1.4q2.61-17.58 5.21-35.15h1.43Q533.3 23.46 530.7 41Zm558.96 175.29c.55-1.16 1.28-2.7 1.82-3.86l2-4.12c.6-1.28 1.42-3 2-4.29s1.45-3.07 2.08-4.38 1.45-3.09 2.08-4.41l2.05-4.35 2-4.21 1.88-4q12 6.88 23.86 14.06 12 7.29 23.85 14.89 12 7.74 23.86 15.81 12.08 8.25 23.88 16.85L1181.11 281q-11.22-9.07-22.74-17.74-11.28-8.47-22.83-16.61-11.31-8-22.9-15.61-11.37-7.55-22.98-14.75ZM923 141.49q-22.29-9.48-44.68-17.88-22.15-8.33-44.51-15.7T789 94.16q-22.5-6.42-45.38-12l1-3.67 1-3.91 1.07-4.07 1.09-4.17c.33-1.25.76-2.93 1.09-4.18s.76-2.89 1.08-4.12.73-2.8 1-4 .69-2.65 1-3.78q23.21 5.76 46.09 12.3t45.51 13.88Q866.33 83.86 889 92.1q22.81 8.31 45.63 17.58c-3.82 10.64-7.78 21.21-11.63 31.81ZM389.75 42.55l3.15-40.4q18.32-.73 36.63-.82 17.84-.09 35.71.42 17.46.5 34.95 1.52 17.13 1 34.31 2.51-2.61 17.58-5.21 35.15-16.95-1-33.85-1.43-17.25-.45-34.46-.3-17.6.16-35.19 1-18.01.8-36.04 2.35Z"/><path class="cls-3" d="m462.78 52.13 4.47-38.76c18.5 0 37.17.49 55.9 1.52q27.17 1.5 54.75 4.42 26.8 2.84 54.08 7 26.67 4.07 53.91 9.38 8.39 1.61 16.71 3.31t16.52 3.56q8.21 1.82 16.35 3.73t16.21 3.9l-8.34 31.89q-8-1.92-16-3.74t-16.12-3.53q-8.12-1.72-16.29-3.33t-16.46-3.08q-26.84-4.87-53.2-8.36-26.87-3.55-53.36-5.67-27.17-2.16-54-2.77c-18.49-.41-36.91-.25-55.13.53Zm649.82 195.41q-22.14-16.26-45.75-31.2-22.74-14.42-46.78-27.71-23.31-12.88-47.88-24.79-24-11.62-49.22-22.35c3.88-10.6 7.84-21.17 11.61-31.81q25.8 10.48 50.43 21.77 25.18 11.52 49.26 24 24.73 12.73 48.38 26.55 24.43 14.28 47.62 29.76Z"/><path class="cls-3" d="M1112.6 247.54c.25-.49.57-1.14.81-1.63l.86-1.73c.26-.55.62-1.27.89-1.81l.9-1.84c.28-.55.64-1.29.91-1.84l.9-1.81.86-1.75.82-1.66 1.24-2.51 1.32-2.67 1.37-2.78 1.4-2.84 1.41-2.85 1.38-2.8c.4-.82.94-1.9 1.34-2.71l1.26-2.57 1 .7 1 .71 1.05.7 1 .71-17.85 35.94-1-.74-1-.74-1-.74ZM389.62 42.56l3.15-40.41h.13l-3.15 40.4h-.13Zm73.16 9.57q-5.91.24-11.78.58t-11.85.77q-6 .44-11.93 1t-12 1.15q1.86-20.42 3.74-40.84 6.07-.35 12.19-.6t12.11-.43q6-.17 12-.25t11.95-.1ZM200 85.56q-.47-25.85-.92-51.67c15.39-5 31.38-9.44 47.86-13.25q23.57-5.43 48.46-9.28 23.79-3.69 48.68-6c15.9-1.48 32.16-2.55 48.69-3.22l-3.15 40.41q-24.39 2.11-47.85 5.54-24.4 3.57-47.73 8.62C277.82 60.25 262 64.32 246.65 69 230.57 73.85 215 79.37 200 85.56Z"/><path class="cls-3" d="m363.49 63 2.85-43.49q6.48-.82 13.07-1.54t13.13-1.29c4.37-.4 8.76-.75 13.19-1.08s8.79-.6 13.24-.85l-3.74 40.84q-6.57.69-13 1.49t-13 1.72q-6.51.93-12.91 2T363.49 63Z"/><path class="cls-3" d="M363.49 63h-.31l-.31.06-.31.06-.31.06q1.41-21.78 2.83-43.56h1.26Z"/><path class="cls-3" d="m346.93 66.3 2.54-44.41 3.9-.58c1.29-.2 2.59-.38 3.89-.57l3.91-.53 3.91-.52q-1.43 21.78-2.83 43.56l-3.84.73-3.83.75-3.83.78c-1.28.25-2.55.49-3.82.79Z"/><path class="cls-3" d="M346.93 66.3a506 506 0 0 0-49.81 13.26 398.43 398.43 0 0 0-47.73 18.75 306.16 306.16 0 0 0-44.34 25.47 234.68 234.68 0 0 0-38.92 33.76c-.72-19.88-1.38-39.76-2.19-59.64a225.7 225.7 0 0 1 40.25-29.29 314.45 314.45 0 0 1 45.59-21.44A427.73 427.73 0 0 1 298.64 32c16.24-4.05 33.24-7.41 50.83-10.11l-.3 5.29c-.09 1.67-.22 3.9-.32 5.58s-.23 4-.33 5.75l-.33 5.83-.66 11.46-.6 10.5Z"/><path class="cls-3" d="M96 149a256.89 256.89 0 0 0-33.39 36.1 215.07 215.07 0 0 0-25.53 43.15 199.14 199.14 0 0 0-14.78 50.89 214.32 214.32 0 0 0-.47 59.08l-9.92-78.64a176.93 176.93 0 0 1 1.33-54.94 165.88 165.88 0 0 1 16.13-46.5 188.82 188.82 0 0 1 27.1-38.71 241.56 241.56 0 0 1 35-31.76 299.87 299.87 0 0 1 25.3-17q12.79-7.67 26.6-14.4 13.33-6.51 27.52-12.17 13.73-5.49 28.19-10.21l.92 51.67Q186 91.37 172.63 98q-13.74 6.83-26.65 14.52-13.32 8-25.66 16.92A301.73 301.73 0 0 0 96 149Z"/><path class="cls-3" d="M166.13 157.54a190.78 190.78 0 0 0-20 25.93A166.94 166.94 0 0 0 131 213a159.46 159.46 0 0 0-9 33.32 168.05 168.05 0 0 0-1.61 37.23L115.73 212a138 138 0 0 1 2-34.32 130.87 130.87 0 0 1 9.59-30.32 142.74 142.74 0 0 1 15.82-26.51 170.36 170.36 0 0 1 20.8-22.95c.86 21.1 2.19 59.63 2.19 59.64Z"/><path class="cls-3" d="M115.74 212a138.13 138.13 0 0 1 1.94-34.34 131.18 131.18 0 0 1 9.59-30.34 143.07 143.07 0 0 1 15.82-26.51 171.8 171.8 0 0 1 20.85-22.91c15.58-14.4 34.14-26.76 54.95-37.21A368.3 368.3 0 0 1 282 36.45a537.94 537.94 0 0 1 67.36-14.57c22.19-3.4 45.45-5.77 69.58-7.13 22.8-1.29 45.88-1.66 69-1.19 22.12.45 44.49 1.66 67 3.57 21.67 1.84 43.61 4.35 65.67 7.49q32.24 4.61 65.27 11.05 32.42 6.33 64 14.12 31.27 7.71 62 16.85c20.49 6.1 40.94 12.71 61.21 19.81q30.75 10.76 61.45 23.23 31.3 12.72 60.92 26.63 30.46 14.3 59.3 30c19.94 10.84 39.37 22.23 58.11 34.14 19.66 12.5 38.74 25.68 57 39.49l-19.53 37.3c-17.32-14.58-35.53-28.45-54.4-41.55-18-12.5-36.72-24.42-56-35.71q-27.86-16.3-57.56-31.1-28.76-14.37-59.38-27.39-30-12.74-60.19-23.59-29.84-10.73-60.14-19.77T741.56 81.7q-31.06-7.45-63.09-13.3-32.54-5.91-64.4-9.78C592.3 56 570.65 54 549.26 52.83c-22.15-1.24-44.22-1.7-66-1.31-22.8.4-45.54 1.72-68 4.07a650.55 650.55 0 0 0-68.38 10.72 490 490 0 0 0-66 18.85 350.39 350.39 0 0 0-61.55 29.31c-20.19 12.33-38.16 26.66-53.19 43.07a191.21 191.21 0 0 0-20 25.93A168.19 168.19 0 0 0 131 213a159.72 159.72 0 0 0-9 33.33 168.82 168.82 0 0 0-1.6 37.25c-1.4-21.46-3.25-50.08-4.66-71.58Zm1243.34 327c-4.61-26.61-13.5-52.86-25.83-78.36a415.11 415.11 0 0 0-42.11-68.22 565.51 565.51 0 0 0-51.92-59.42 732.31 732.31 0 0 0-58.11-52l19.89-36.7c21.91 16 42.53 32.45 61.59 49.35a623.24 623.24 0 0 1 56.13 56.14 438.86 438.86 0 0 1 47.19 64.34c14.28 24.07 25.18 48.8 31.79 73.83a213.59 213.59 0 0 1 6.73 40 178.63 178.63 0 0 1-1.83 41 165.56 165.56 0 0 1-12.39 41.18 179.53 179.53 0 0 1-25.21 40.38l-50.32 61.26a217 217 0 0 0 27.7-43 199.85 199.85 0 0 0 15.27-43.78 207.72 207.72 0 0 0 5-43.5 235.76 235.76 0 0 0-3.57-42.5Z"/><path class="cls-3" d="M1260.17 613.06a171.14 171.14 0 0 0 15.93-26.66 162 162 0 0 0 10.13-27.22 163.59 163.59 0 0 0 5-27.39 174.68 174.68 0 0 0 .47-27.29c-1.31-22.34-6.66-44.66-15.35-66.61a308.79 308.79 0 0 0-32.25-59.78 441 441 0 0 0-43.18-53.32 598.3 598.3 0 0 0-50.55-47.58l19.53-37.3a671.94 671.94 0 0 1 53.65 45 479 479 0 0 1 46.84 50.25c14.69 18.39 27 37.18 36.48 56.17 10.28 20.61 17.21 41.53 20.08 62.41a154.13 154.13 0 0 1 1.41 25.52 137.24 137.24 0 0 1-3.18 25.58 131.78 131.78 0 0 1-8.45 25.36 139.38 139.38 0 0 1-14.43 24.8Z"/><path class="cls-3" d="M1291.69 504.5c-1.31-22.33-6.65-44.65-15.34-66.58a309.07 309.07 0 0 0-32.23-59.76 441.46 441.46 0 0 0-43.15-53.3 597.81 597.81 0 0 0-50.52-47.58L1170 240a669.31 669.31 0 0 1 53.63 45 480.36 480.36 0 0 1 46.8 50.23c14.68 18.38 27 37.18 36.46 56.15 10.27 20.6 17.2 41.52 20.07 62.39a154.19 154.19 0 0 1 1.41 25.52 136.42 136.42 0 0 1-3.19 25.59 131.84 131.84 0 0 1-8.44 25.37 140.11 140.11 0 0 1-14.46 24.75l-42.13 58.06a170.83 170.83 0 0 0 15.94-26.67 161.89 161.89 0 0 0 10.14-27.21 163.89 163.89 0 0 0 5-27.4 174.8 174.8 0 0 0 .46-27.28Z"/><path class="cls-3" d="m1296.8 547.07-41.46 57.75a167.35 167.35 0 0 0 15-25.14 157.85 157.85 0 0 0 9.74-25.8 159.83 159.83 0 0 0 5-26.16 171 171 0 0 0 .72-26.26c-2.09-43.54-20-86.68-47.44-126.7-23.74-34.64-55.1-67.72-90.81-97.9-32-27-68.33-52.48-107.38-75.53A1012.13 1012.13 0 0 0 922 142a1139.72 1139.72 0 0 0-121.81-43.76A1152.76 1152.76 0 0 0 678.9 69.31a1050.69 1050.69 0 0 0-126-15.23c-44.82-2.59-90.56-2-135.29 2.73-36.23 3.86-70 10.25-100.75 19.12-33.91 9.79-64.53 22.69-90.79 38.66-29.35 17.84-53.43 39.63-70.33 65.16A160 160 0 0 0 129 279.66l-4.3-71c-2.1-34.71 8.41-65.2 28.36-90.91 17.58-22.67 42.5-41.62 72.74-56.74 27-13.49 58.33-24 93-31.6 31.36-6.86 65.73-11.37 102.59-13.51 45.4-2.64 91.8-1.49 137.25 2.44a1220.56 1220.56 0 0 1 127.7 18.16c40.86 8 82.32 18.1 123.12 30.15s82.62 26.54 124.17 43.45a1174.89 1174.89 0 0 1 121.42 57.43c40.4 22.13 78.27 46.37 112 72 37.68 28.64 71.25 59.88 97.35 92.41 30.26 37.72 51.28 78.22 56.37 118.83a148.5 148.5 0 0 1 1.07 24.54 133 133 0 0 1-3.28 24.41 128.69 128.69 0 0 1-8.16 24 136.75 136.75 0 0 1-13.6 23.35Z"/><path class="cls-3" d="M124.72 208.69a167.31 167.31 0 0 0 8.46 42.54A238.62 238.62 0 0 0 155.55 299a361.18 361.18 0 0 0 39.07 52.62 547.25 547.25 0 0 0 58.3 56.38l-.9 80.31a527.16 527.16 0 0 1-55.51-57.84 369 369 0 0 1-37.44-54.79 262.87 262.87 0 0 1-21.66-50.49 197.66 197.66 0 0 1-8.41-45.53Z"/><path class="cls-3" d="M1256.5 603.2a196.9 196.9 0 0 1-32.3 35.45c-51.53 44.76-132.93 74.86-238.91 84.32-117.21 10.47-253.23-5.19-389.93-48.27C459.75 632 339.59 567.32 252 488.33c-77.33-69.76-115.26-138.5-122.17-199.11-.37-3.23-.65-6.44-.84-9.61l-3.1-51.17a167.22 167.22 0 0 0-4.6 64.69c3.5 29.61 14.33 60.95 33.23 93.4 20.38 35 49.86 70.78 88.81 106.28 41.42 37.75 91.3 73.15 148.35 105 59.12 33 124.2 61.13 193.07 83.4A1132.69 1132.69 0 0 0 795 727.86c68.31 8.34 133.81 9.61 194.43 3.94 57.48-5.39 107.52-16.72 149.55-32.95 39.13-15.1 70.7-34.21 94.8-56.35 22.2-20.41 37.83-43.18 47.28-67.59 1.45-3.74 2.73-7.52 3.89-11.33Zm29.09-81.91v-.07.07Zm-.52 6c0 .26 0 .53-.08.79v-.39Zm.81-12.19v-1.36c.02.48.02.93 0 1.39ZM350.5 67.49l3.23-.7Zm13.7-2.8c1.06-.21 2.14-.4 3.21-.6-1.07.2-2.15.39-3.21.6Zm11.72-2.12 3.25-.55Zm14.52-2.32 2-.28Zm12-1.64 3.17-.41Zm-75.72 14.61 2.39-.64Zm12.52-3.17 3.32-.77Zm-47.81 14 1.86-.65Zm11.67-3.94 1.7-.55Zm13.75-4.22-1.3.4 3.06-.88c-.61.21-1.18.36-1.76.52Zm-81.32 33.15c.79-.44 1.61-.87 2.41-1.31-.8.48-1.62.91-2.41 1.35Zm9.4-5 3.14-1.6c-1.07.56-2.07 1.08-3.14 1.61Zm11.32-5.58 1.4-.67Zm11.4-5.11 2.62-1.1Zm10.86-4.44 2.57-1ZM184 146.37c1.24-1.18 2.49-2.34 3.77-3.49-1.25 1.12-2.5 2.32-3.77 3.49Zm5.47-5q2.07-1.85 4.22-3.64-2.11 1.79-4.19 3.63Zm5.42-4.66q2.78-2.31 5.65-4.55-2.85 2.23-5.62 4.54Zm6.74-5.38q2.37-1.84 4.82-3.64-2.45 1.79-4.79 3.63Zm6.46-4.83c1.58-1.14 3.18-2.26 4.8-3.38-1.59 1.11-3.19 2.23-4.77 3.37Zm17.94-11.9q-6 3.68-11.76 7.57 6.12-4.16 12.61-8.06Zm-48.45 38.1q2.41-2.49 4.94-4.92c-1.65 1.61-3.3 3.22-4.91 4.91Zm-4.71 5c1.43-1.58 2.88-3.14 4.37-4.68-1.46 1.57-2.91 3.13-4.34 4.71Zm-3.28 3.7.56-.64Zm-10.81 13.82c.26-.36.52-.7.77-1.06Zm3.1-4.23 1.06-1.4Zm3.42-4.4c.31-.39.61-.78.93-1.17-.29.42-.59.81-.9 1.2Zm-35 79.43.12-.83Zm2.4-13c0-.23.1-.45.16-.67-.05.25-.1.48-.15.7Zm3.41-12.52c.07-.23.14-.46.22-.68-.06.25-.14.48-.21.71Zm2.17-6.38Zm2.19-5.65.36-.87Zm2.63-6.08.1-.24Zm2.69-5.58c.16-.32.32-.64.49-1-.16.39-.28.71-.48 1.03Zm3-5.6.35-.63Zm3.26-5.62c.21-.35.43-.7.65-1.05-.25.38-.47.73-.7 1.08Zm3.71-5.87-.41.64.6-.93Zm-27 92.24v1.37Zm.25-12.51c0-.35 0-.7.07-1.05-.08.38-.08.73-.08 1.08ZM1286 509.1v-1.67 1.67Z"/><path class="cls-3" d="M1359.08 539c-4.61-26.62-13.5-52.87-25.83-78.37-2.39-4.93-4.93-9.83-7.57-14.71.48 2.61.9 5.21 1.26 7.82a156.73 156.73 0 0 1 1.44 18.58v.63c0 2.11 0 4.22-.05 6.31a139.15 139.15 0 0 1-1.37 15.46c-.49 3.4-1.07 6.78-1.81 10.12-.25 1.09-.55 2.17-.82 3.25a130.51 130.51 0 0 1-7.64 22.13 137.3 137.3 0 0 1-9.57 17.61c-.24.37-.45.75-.69 1.12q-2 3.06-4.17 6.06l-24.85 34.24-4.07 5.62-5.39 7.42-7.8 10.75c.41-.56.78-1.13 1.18-1.69a197.37 197.37 0 0 1-27.55 31.11c-24.1 22.14-55.67 41.25-94.8 56.36-42 16.22-92.07 27.55-149.55 32.94-60.63 5.67-126.12 4.4-194.43-3.94a1132.69 1132.69 0 0 1-210.23-46.68c-68.87-22.27-133.95-50.43-193.07-83.4-57.05-31.82-106.93-67.22-148.35-105-38.95-35.5-68.43-71.28-88.81-106.28-18.9-32.45-29.73-63.79-33.23-93.4-.39-3.31-.68-6.59-.89-9.85v.31c-.37-5.59-.76-11.66-1.18-18l-.28-4.29q-.23-3.4-.45-6.86l-.69-10.5c0-.72-.09-1.44-.14-2.16l-.5-7.58c-.1-1.58-.2-3.15-.31-4.71L115.73 212a140.72 140.72 0 0 1 .66-25.81v-.15c.32-2.65.73-5.27 1.2-7.87 0-.16 0-.31.07-.47a129.43 129.43 0 0 1 5.82-21c.24-.65.44-1.31.69-2q1.42-3.7 3.08-7.34c.94-2.08 2-4.13 3-6.16.12-.23.22-.47.34-.7a142.8 142.8 0 0 1 11-17.64c.48-.67.92-1.34 1.41-2 2.11-2.81 4.38-5.56 6.71-8.27 1.38-1.61 2.79-3.21 4.25-4.78A327.28 327.28 0 0 0 96 149c-21.94 19.69-39.73 41.77-52.6 66.12a200.53 200.53 0 0 0-23.3 88.27c-1.09 35.12 6.5 72.76 24 112.18 19.12 43.12 49.75 87.69 92.75 132.28 46.3 48 104.22 93.31 172.26 134 71.06 42.51 150.59 78.52 235.6 106.38 85.56 28 173.37 46.76 259.86 55.46 83.78 8.43 163.28 7.14 235.72-3.44 67.88-9.91 125.69-27.43 172.88-50.93 43.35-21.59 77-47.83 101.29-77.36 22.1-26.84 36.26-56.12 43.18-86.86 6.25-27.82 6.52-56.73 1.44-86.1Zm-78.64 37.35q-1.23 3.09-2.59 6.14 1.37-3.02 2.59-6.12Zm1.23-3.09c.73-1.95 1.4-3.91 2.06-5.88-.74 2.24-1.54 4.46-2.38 6.68.1-.25.22-.51.32-.78Zm2.5-7.16c.27-.82.49-1.66.74-2.48-.27.87-.49 1.75-.77 2.62ZM125.91 228.46c-.36 1.3-.67 2.62-1 3.94.32-1.28.66-2.56 1-3.83a.41.41 0 0 0 0-.11Zm-2.29 9.3c-.22 1-.38 2.06-.57 3.08l-.09.48c.32-1.7.65-3.41 1-5.09-.09.51-.23 1.01-.34 1.53Zm-1.62 8.57c-.1.67-.16 1.35-.26 2s-.15 1.2-.23 1.81c.22-1.65.43-3.3.7-4.94-.03.4-.12.8-.21 1.13Zm-1.16 9.09c-.08.76-.1 1.54-.16 2.3s-.09 1.24-.14 1.86c.13-1.69.24-3.39.42-5.06.04.3-.06.59-.09.9Zm-.66 9.22c-.06 1.55 0 3.12-.07 4.68 0-1.78 0-3.57.12-5.33.02.22-.01.43-.02.65Zm-.15 9.38c0 1.85.14 3.73.22 5.6v.14c-.09-2.08-.19-4.16-.21-6.22.03.16.02.32.02.46Zm1156.72 310.91c-1.11 2.39-2.28 4.77-3.52 7.12.34-.64.65-1.29 1-1.94.63-1.24 1.29-2.47 1.88-3.71.22-.49.42-.98.64-1.47Zm-4 8.12c-1.41 2.64-2.92 5.25-4.49 7.84 1.54-2.59 3.05-5.2 4.46-7.84Zm-6 10.21c-1.16 1.84-2.35 3.68-3.59 5.49 1.23-1.81 2.42-3.65 3.58-5.49Zm-126.04-384.41c-2.08-1.44-4.15-2.87-6.25-4.29 2.07 1.44 4.17 2.85 6.25 4.29Zm14.09 9.94c-.85-.62-1.7-1.25-2.56-1.86q-4.41-3.17-8.88-6.26l-.95-.66q6.26 4.34 12.39 8.78Zm15.09 11.12c-2.92-2.2-5.86-4.4-8.81-6.57l-3.58-2.6q6.24 4.55 12.39 9.17Zm-.59 1.37.7-1.28-.68 1.3Z"/><path class="cls-3" d="M11.89 259.43A221.65 221.65 0 0 0 22.45 304a295.82 295.82 0 0 0 22.22 48.84 410.8 410.8 0 0 0 35.68 52.71 571.27 571.27 0 0 0 50.76 55.81c48.89 47.41 110.35 92.73 182.77 134.03 75.85 43.27 160.83 80.5 251.59 109.94C656.85 735 750.34 755.49 842 766.11c88.56 10.26 172 10.87 247.22 2.19l-48.89 72c-72.45 10.58-151.95 11.87-235.73 3.44-86.53-8.74-174.33-27.44-259.9-55.48-85-27.86-164.54-63.87-235.6-106.38-68-40.7-126-86-172.26-134a563.53 563.53 0 0 1-48.36-57 426.33 426.33 0 0 1-34.31-54.48 326 326 0 0 1-21.7-51.12 258.51 258.51 0 0 1-10.66-47.22c-2.98-23.59-6.95-55.06-9.92-78.63Z"/><path class="cls-3" d="M136.84 547.87a563.88 563.88 0 0 1-48.32-56.93 426.29 426.29 0 0 1-34.3-54.45 325.64 325.64 0 0 1-21.7-51.08 258.36 258.36 0 0 1-10.69-47.19l-9.92-78.64a222.16 222.16 0 0 0 10.58 44.52 296.1 296.1 0 0 0 22.23 48.81 409.68 409.68 0 0 0 35.67 52.67 572.77 572.77 0 0 0 50.72 55.76c48.89 47.43 110.35 92.75 182.77 134.05 75.85 43.27 160.83 80.5 251.59 109.93C656.85 735 750.34 755.49 842 766.11c88.56 10.26 172 10.86 247.22 2.19a706.35 706.35 0 0 0 98.76-18.15 480.45 480.45 0 0 0 78-27.44 323.89 323.89 0 0 0 58.35-34 227.86 227.86 0 0 0 40.67-38.19l-50.32 61.26a264.75 264.75 0 0 1-42.35 40.83 350.72 350.72 0 0 1-59 36.65 486.1 486.1 0 0 1-77.1 30.12 671.94 671.94 0 0 1-96 20.9c-72.44 10.58-151.94 11.87-235.72 3.44-86.44-8.72-174.24-27.42-259.81-55.46-85-27.86-164.54-63.87-235.6-106.38-68.04-40.71-125.96-85.99-172.26-134.01Z"/><path class="cls-3" d="M1314.61 711.8a264.28 264.28 0 0 1-42.35 40.82 351 351 0 0 1-58.94 36.65 486.1 486.1 0 0 1-77.1 30.11 670.58 670.58 0 0 1-95.93 20.9l48.89-72a706.2 706.2 0 0 0 98.75-18.15 481.28 481.28 0 0 0 78-27.43 324.12 324.12 0 0 0 58.35-34 228.31 228.31 0 0 0 40.63-38.2Z"/><path class="cls-3" d="m1370.61 660.19-51.18 61.54c-38.66 46.5-99 84.11-180 108.72-90.7 27.55-202.06 37.3-326.48 25.69-130.7-12.14-265.24-46.89-390.48-102.59-120.66-53.67-222.38-122.28-296.41-200.1a562.85 562.85 0 0 1-47.87-57.18 429.36 429.36 0 0 1-33.77-54.35 332.34 332.34 0 0 1-21.33-50.73 266 266 0 0 1-10.64-46.65L2 265.17a228.65 228.65 0 0 0 10.53 44.07 300.4 300.4 0 0 0 21.83 48.5 410.22 410.22 0 0 0 35.09 52.6 570.08 570.08 0 0 0 50.23 56c78.27 77 186.58 146.33 315.42 201.86 134.02 57.8 277.63 95.24 416.17 110.33 131.49 14.33 247.73 7.34 340.65-17.53 82.48-22 142.26-57 178.69-100.81Z"/><path class="cls-3" d="m1314.61 711.8-.1.11-.06.08c-.44.54-.91 1.07-1.36 1.6s-.88 1-1.33 1.57c-.62.73-1.22 1.46-1.85 2.18s-1.31 1.46-2 2.18c-.88 1-1.74 2-2.64 2.94l-.2.21c-.8.87-1.63 1.72-2.45 2.58s-1.7 1.8-2.58 2.69-1.82 1.82-2.74 2.72-1.64 1.64-2.49 2.46c-1 1-2.1 2-3.16 3l-1 .95-.92.87c-.1.09-.21.17-.3.26-1.15 1.05-2.33 2.09-3.51 3.12-.72.63-1.42 1.27-2.15 1.89l-.64.57c-1 .88-2.08 1.74-3.12 2.6-.7.58-1.38 1.17-2.09 1.74-1.34 1.1-2.72 2.19-4.1 3.27-.52.42-1 .84-1.56 1.25l-.39.3c-1.56 1.21-3.16 2.4-4.76 3.59-.48.36-.94.72-1.42 1.07l-.35.26c-1.64 1.2-3.31 2.38-5 3.56-.59.41-1.16.83-1.76 1.24-1.66 1.15-3.36 2.29-5.06 3.43l-2 1.3c-1.72 1.14-3.49 2.25-5.26 3.37-.5.32-1 .65-1.5 1l-.17.11a2.26 2.26 0 0 0-.26.16c-1.82 1.13-3.67 2.24-5.53 3.35-.64.38-1.26.77-1.91 1.15-1.85 1.09-3.75 2.16-5.65 3.23l-2 1.17c-1.92 1.07-3.88 2.11-5.84 3.16-.69.37-1.36.75-2.06 1.11-2.27 1.2-4.59 2.38-6.93 3.56l-1.13.58-.12.06c-1.61.8-3.26 1.58-4.9 2.37-1.28.61-2.53 1.24-3.82 1.84-1.69.8-3.42 1.57-5.13 2.34-1.34.61-2.66 1.23-4 1.83-1.67.74-3.39 1.46-5.09 2.18-1.42.61-2.82 1.23-4.26 1.83-2 .85-4.13 1.67-6.21 2.5-1.09.44-2.16.88-3.26 1.31-2.47 1-5 1.91-7.5 2.85-.75.27-1.48.56-2.23.84-2.69 1-5.43 1.94-8.17 2.9l-1.84.65c-2.76 1-5.57 1.87-8.4 2.79l-1.89.62c-2.74.89-5.53 1.74-8.33 2.59l-1.89.59-.36.11c-3.09.92-6.22 1.82-9.36 2.71l-1.67.47q-5 1.38-10 2.69l-1.29.34q-5.17 1.34-10.45 2.6l-1.14.27c-3.41.81-6.88 1.6-10.36 2.37l-1.53.34c-3.24.71-6.53 1.39-9.82 2.05l-2.32.49c-3.21.63-6.45 1.24-9.7 1.84l-2.62.5c-3.3.59-6.65 1.16-10 1.72l-2.52.43q-6.32 1-12.75 2c-72.45 10.59-151.95 11.87-235.73 3.44A1205.62 1205.62 0 0 1 658 819.65q-24.42-5.55-48.75-12.12-32.43-8.74-64.54-19.27a1200.2 1200.2 0 0 1-180.77-75.74q-7-3.67-14-7.42-20.85-11.26-40.84-23.22-6.39-3.81-12.64-7.69-12.52-7.73-24.56-15.68t-23.58-16.08a808.73 808.73 0 0 1-84.22-67.85q-4.74-4.4-9.36-8.83-9.23-8.87-17.9-17.88c-2.49-2.57-4.92-5.15-7.32-7.73-.91-1-1.78-1.93-2.67-2.9q-2.25-2.43-4.44-4.86c-1-1.14-2-2.27-3-3.41q-1.91-2.15-3.78-4.29-1.6-1.84-3.18-3.69-1.73-2-3.4-4c-1.07-1.28-2.15-2.57-3.2-3.85s-2.08-2.54-3.11-3.82-2.14-2.64-3.19-4-2.06-2.64-3.09-4-1.88-2.39-2.79-3.58-2-2.63-3-4l-2.21-2.95-.26-.36c-1-1.35-2-2.7-2.92-4s-1.72-2.4-2.56-3.6-1.87-2.66-2.78-4c-.35-.52-.72-1-1.07-1.54l-.09-.13c-.45-.66-.88-1.31-1.32-2s-1.09-1.58-1.61-2.36c-.34-.51-.66-1-1-1.53-.83-1.25-1.64-2.51-2.45-3.76s-1.63-2.51-2.4-3.75c-1.11-1.76-2.19-3.52-3.26-5.28-.42-.69-.87-1.39-1.28-2.08s-1-1.65-1.45-2.48q-1.42-2.39-2.81-4.79c-.6-1.06-1.2-2.12-1.79-3.18q-1.24-2.2-2.44-4.41c-.28-.52-.58-1-.86-1.55s-.59-1.14-.89-1.71l-.76-1.4-.21-.39a.59.59 0 0 1 0-.08c-.47-.88-.91-1.76-1.36-2.65s-1-1.93-1.48-2.9v-.05l-.41-.8c-.9-1.8-1.76-3.59-2.62-5.38l-.51-1.05c-.74-1.55-1.44-3.1-2.15-4.64-.27-.61-.56-1.21-.83-1.82-.13-.28-.25-.56-.37-.84l-.31-.66c-.3-.68-.57-1.35-.86-2-.06-.13-.12-.25-.17-.38-.36-.83-.74-1.67-1.09-2.5-.19-.44-.36-.88-.55-1.33-.4-1-.79-1.91-1.18-2.86-.29-.73-.61-1.46-.9-2.19l-.74-1.91-1.11-2.88c-.06-.15-.12-.3-.17-.45-.14-.36-.28-.71-.41-1.06-.31-.81-.58-1.61-.88-2.42-.37-1-.75-2.05-1.11-3.07l-.3-.85c-.33-1-.64-1.9-1-2.85s-.57-1.63-.84-2.44c-.07-.22-.13-.43-.2-.64s-.07-.22-.1-.32v-.1c-.07-.23-.12-.45-.2-.67-.58-1.82-1.16-3.63-1.7-5.43s-1-3.39-1.44-5.07c-.07-.26-.16-.52-.23-.78 0-.11 0-.22-.08-.34-1-3.57-1.86-7.12-2.67-10.65-.07-.29-.15-.58-.21-.87s-.12-.59-.19-.89c-.72-3.25-1.39-6.48-2-9.69-.06-.28-.09-.56-.14-.84l-.06-.29c0-.28-.08-.56-.13-.84-.58-3.36-1.09-6.71-1.52-10 0-.22-.07-.45-.1-.67v-.16c0-.32-.09-.67-.13-1-2.43-18.43-5.3-41.18-7.8-61.38a209.78 209.78 0 0 0-3.11 24.91c-4.67 74.71 28.93 162 115.21 252.74 100.81 106 250.13 193.08 424.06 248.6 175.73 56.1 349.72 71.41 495.39 49.32 128.28-19.44 221.14-66.07 274-129.74a219.11 219.11 0 0 0 35.33-58.81Zm47.94-135.61c0 1.95.08 3.91 0 5.86v-.53c.09-1.77.02-3.52 0-5.33Zm-.35 16.72c.09-1.47.11-3 .17-4.44-.06 1.53-.08 2.97-.17 4.44Zm-1 10.79c.15-1.3.23-2.61.36-3.91-.09 1.3-.17 2.61-.32 3.91Zm-1.52 10.75c.2-1.19.34-2.39.51-3.59-.14 1.2-.27 2.4-.47 3.59Zm-1.6 8.15c-.17.83-.3 1.66-.49 2.49a.19.19 0 0 0 0-.07c.24-.8.41-1.62.53-2.42Zm-1.85 8.17c.35-1.39.68-2.78 1-4.16-.23 1.39-.61 2.77-.96 4.16Zm-1.5 5.54c.29-1 .55-2 .83-3-.24.96-.5 1.98-.79 3Zm-1.71 5.64c.28-.87.54-1.75.8-2.62-.22.87-.48 1.74-.76 2.67Zm-1.85 5.53c.31-.86.59-1.73.88-2.59-.25.86-.53 1.73-.84 2.59Zm-1.15 3.14c-.29.78-.57 1.57-.87 2.35.34-.78.62-1.57.91-2.35ZM20.73 292.73l-.15 2.06Zm.65-6.63-.09.92Zm.89-6.69c.07-.47.15-1 .23-1.42-.06.38-.14.77-.2 1.15Zm1.4-8.16-.36 1.88Zm1.33-6.41-.45 2.07Zm1.5-6.17c-.18.67-.34 1.35-.51 2 .17-.67.33-1.33.51-2Zm1.66-6c-.16.55-.31 1.1-.47 1.65.16-.57.31-1.12.47-1.67Zm4.35-13.1-.42 1.12c.13-.39.28-.77.42-1.14Zm2.55-6.57c-.25.62-.51 1.24-.76 1.87.25-.6.51-1.22.76-1.87Zm1.62-3.84c.32-.73.64-1.45 1-2.18-.19.41-.39.82-.57 1.24s-.29.66-.43.97Zm3.48-7.58c-.34.7-.68 1.41-1 2.12.33-.7.66-1.39 1-2.09Zm2.71-5.39c-.35.68-.7 1.36-1 2 .3-.61.65-1.29 1-1.97Zm5.52-9.95c-1.54 2.6-3 5.23-4.42 7.88 1.42-2.62 2.88-5.25 4.42-7.85Zm5-8c-1.67 2.56-3.3 5.15-4.85 7.77 1.51-2.55 3.14-5.14 4.81-7.7Zm6.2-9.05q-2.62 3.63-5.08 7.34 2.42-3.63 5.04-7.27Zm1.07-1.45c1.16-1.59 2.38-3.15 3.59-4.71-.53.67-1.09 1.32-1.6 2-.72.97-1.37 1.88-2.03 2.78Zm10.85-13.66q-1.45 1.72-2.88 3.46c.91-1.09 1.86-2.24 2.84-3.39Zm7.74-8.66c-1 1.06-1.95 2.13-2.92 3.2.93-1 1.89-2.07 2.88-3.13ZM109.11 138l-2.53 2Zm11-8.38 1.31-.92c-.35.24-.71.47-1.05.72Zm14.22-9.78c-1 .66-2 1.32-3 2 .95-.7 1.95-1.36 2.95-2.02Zm11.47-7.19c.41-.25.83-.48 1.24-.72l-1 .57ZM1347.87 656.3c-.29.7-.56 1.4-.85 2.1.29-.7.56-1.4.85-2.1Zm-2.34 5.54c-.29.66-.58 1.33-.88 2 .35-.67.59-1.34.88-2Zm-3.41 7.38.21-.43c.26-.53.5-1.07.75-1.6-.32.67-.63 1.35-.96 2.03Zm-1.86 3.67c-.31.62-.62 1.24-.94 1.85.32-.61.68-1.23.94-1.85ZM84.73 159.8c.9-.9 1.77-1.81 2.68-2.7-.91.9-1.78 1.8-2.68 2.7ZM1359.3 540.45c.52 3.14 1 6.27 1.41 9.39q-.69-5.4-1.63-10.83c.08.48.14.99.22 1.44Zm2.47 19.45c0 .25 0 .5.08.74-.19-2.27-.46-4.55-.72-6.83.23 2.03.46 4.07.64 6.09Zm.71 11.48c-.07-2.07-.23-4.15-.36-6.22.13 2.07.28 4.15.36 6.22Z"/><path class="cls-3" d="M1255.34 604.82c-28 39.06-74.81 70.83-139.21 92.25-71.85 23.9-162 33.76-264.45 26.84-108-7.31-221.87-32.71-330.53-75.44C415.18 606.8 322.58 552 252 488.33l.9-80.31c74.5 62.64 172.55 117.78 284.79 160.79C653 613 773.21 640.53 886.5 650.38c107.11 9.32 200.26 2.09 273.23-19.06 65-18.85 111-47.93 137.07-84.25Z"/><path class="cls-3" d="M243.35 492.81a533.85 533.85 0 0 1-54.62-57.29 377.24 377.24 0 0 1-37.46-54.73 268.47 268.47 0 0 1-22.06-50.91 201.5 201.5 0 0 1-8.78-46.34l-4.7-71.54a171.17 171.17 0 0 0 8.84 43.32 244.15 244.15 0 0 0 22.78 48.25 369.21 369.21 0 0 0 39.08 52.61A556.27 556.27 0 0 0 243.8 412c43.69 37.12 96.43 72.36 156.83 104.46 62.72 33.33 131.75 62.25 204.72 85.6a1317.53 1317.53 0 0 0 222.06 50.67c71.77 9.83 140.17 12.72 203 8.78l-41 70.27c-60.62 5.67-126.12 4.4-194.43-3.94a1132.69 1132.69 0 0 1-210.23-46.68c-68.87-22.27-133.95-50.43-193.07-83.4-57.03-31.76-106.91-67.2-148.33-104.95Z"/><path class="cls-3" d="M1201 244.3c21.91 16 42.53 32.45 61.59 49.35a623.24 623.24 0 0 1 56.13 56.14 438.86 438.86 0 0 1 47.19 64.34c14.28 24.07 25.18 48.8 31.79 73.83 7.32 27.7 9.18 54.93 4.88 81.1-4.77 29-17.09 56.54-37.77 81.65-22.86 27.76-55.66 52.24-99 72.08-47.39 21.7-106.4 37.42-176.63 45.51-75.26 8.67-158.66 8.07-247.22-2.19-91.62-10.62-185.11-31.11-276.49-60.79-90.76-29.43-175.74-66.66-251.59-109.93-72.42-41.3-133.89-86.62-182.77-134C85.9 417.48 54 374.22 34.3 332.87 16.41 295.25 9 259.77 10.61 227.09a166.46 166.46 0 0 1 25.54-80.78c13.68-21.89 32.41-41.46 55.33-58.64 20.77-15.56 44.43-28.75 70.17-39.75a498.09 498.09 0 0 1 75.69-25A689.77 689.77 0 0 1 315 8.59c25.1-3.23 51.17-5.36 77.95-6.44 25.22-1 50.57-1.08 75.82-.29 24.07.75 48.29 2.28 72.49 4.52q35 3.24 70.38 8.48 34.38 5.07 69.47 12 34.4 6.84 67.82 15.12 33.12 8.2 65.65 17.87t64.83 20.9q32.61 11.35 65.3 24.49 33.29 13.46 65.09 28.14 32.73 15.15 64 31.79c21.68 11.54 42.94 23.72 63.59 36.48 21.75 13.44 43.03 27.67 63.61 42.65Zm-170.6 417.23c59.38-3.74 110.56-13.39 153-27.9 39.39-13.47 70.61-30.92 93.87-51.38 21.35-18.79 35.76-39.94 43.71-62.73 7.27-20.83 9.09-42.92 6-65.76-2.87-20.88-9.8-41.8-20.08-62.41-9.46-19-21.79-37.78-36.48-56.17a479 479 0 0 0-46.84-50.25 671.94 671.94 0 0 0-53.65-45c-18.24-13.81-37.32-27-57-39.49-18.74-11.91-38.17-23.3-58.11-34.14q-28.77-15.65-59.3-30-29.57-13.89-60.92-26.63-30.65-12.47-61.45-23.23c-20.27-7.1-40.72-13.71-61.21-19.81s-41.19-11.71-62-16.85q-31.53-7.77-64-14.12-33-6.45-65.27-11c-22.06-3.14-44-5.65-65.67-7.5-22.46-1.9-44.83-3.11-67-3.56-23.15-.47-46.23-.1-69 1.19-24.13 1.36-47.39 3.73-69.58 7.13A537.94 537.94 0 0 0 282 36.45a368.3 368.3 0 0 0-63.14 24.24c-20.78 10.45-39.34 22.81-54.92 37.21-17 15.72-29.95 33.39-38.18 52.91-9 21.34-12.33 44.8-9.18 70.1 3.44 27.61 14.55 57.17 34.16 88.13 21.24 33.52 52.11 68.18 93.06 103 43.69 37.12 96.43 72.36 156.83 104.46 62.72 33.33 131.75 62.25 204.72 85.6a1317.53 1317.53 0 0 0 222.06 50.67c71.77 9.83 140.17 12.72 203 8.78"/><path class="cls-3" d="M1169.89 239.91a671.94 671.94 0 0 1 53.65 45 479 479 0 0 1 46.84 50.25c14.69 18.39 27 37.18 36.48 56.17 10.28 20.61 17.21 41.53 20.08 62.41 3.14 22.84 1.32 44.93-6 65.76-8 22.79-22.36 43.94-43.72 62.73-23.25 20.46-54.47 37.91-93.86 51.38-42.45 14.51-93.63 24.16-153 27.9-62.82 3.94-131.22 1.05-203-8.78a1317.75 1317.75 0 0 1-222.06-50.67c-73-23.35-142-52.27-204.72-85.6C340.23 484.38 287.49 449.14 243.8 412c-41-34.8-71.82-69.46-93.06-103-19.61-31-30.72-60.52-34.16-88.13-3.15-25.3.18-48.76 9.18-70.1 8.23-19.52 21.17-37.19 38.18-52.91 15.58-14.4 34.14-26.76 54.95-37.21A368.3 368.3 0 0 1 282 36.45a537.94 537.94 0 0 1 67.36-14.57c22.19-3.4 45.45-5.77 69.58-7.13 22.8-1.29 45.88-1.66 69-1.19 22.12.45 44.49 1.66 67 3.57 21.67 1.84 43.61 4.35 65.67 7.49q32.24 4.61 65.27 11.05 32.42 6.33 64 14.12 31.27 7.71 62 16.85c20.49 6.1 40.94 12.71 61.21 19.81q30.75 10.76 61.45 23.23 31.3 12.72 60.92 26.63 30.46 14.3 59.3 30c19.94 10.84 39.37 22.23 58.11 34.14 19.7 12.47 38.78 25.65 57.02 39.46ZM252.92 408c92.53 77.8 219.86 143.21 363.41 188.09C761.1 641.37 904 660 1025.65 652.9c109.35-6.42 191.53-33.21 241.57-74.56 42.28-35 59.62-78.78 53.5-127.59-5.09-40.61-26.11-81.11-56.37-118.83-26.1-32.53-59.67-63.77-97.35-92.41-33.68-25.61-71.55-49.85-112-72a1174.89 1174.89 0 0 0-121.37-57.41c-41.55-16.91-83.28-31.37-124.17-43.45S727.2 44.46 686.34 36.5a1220.56 1220.56 0 0 0-127.69-18.13c-45.45-3.93-91.85-5.08-137.25-2.44-50.92 2.95-97.26 10.46-137.49 22.48-46.44 13.88-85.58 34-113.53 60.4C137.33 130 119.8 170 125.52 217.57c6.81 56.58 46.23 122.2 127.4 190.45"/><path class="cls-3" d="M117.05 224.22Zm.85 5.25c.18 1 .35 1.95.55 2.93-.2-.98-.37-1.95-.55-2.93Zm1 5.37c.21 1 .43 2 .65 2.95-.17-.98-.39-1.97-.55-2.95Zm1.22 5.32c.26 1 .51 2 .78 3.07-.22-1.03-.47-2.05-.73-3.07Zm1.43 5.45c.29 1 .58 2.06.89 3.1-.26-1.04-.55-2.07-.84-3.1Zm1.61 5.44c.33 1.07.67 2.14 1 3.22-.28-1.08-.62-2.15-.95-3.22Zm3.05 9.05c-.44-1.22-.87-2.44-1.29-3.65.47 1.21.9 2.43 1.34 3.65Zm.77 2.08c.46 1.24 1 2.48 1.44 3.72-.42-1.24-.93-2.48-1.42-3.72Zm2.26 5.77c.51 1.24 1 2.48 1.57 3.72-.49-1.24-1.01-2.48-1.52-3.67Zm2.5 5.88c.55 1.24 1.12 2.48 1.69 3.72-.52-1.24-1.09-2.48-1.64-3.72Zm2.68 5.85c.59 1.25 1.22 2.51 1.84 3.77-.57-1.26-1.2-2.52-1.79-3.77Zm2.9 5.92c.68 1.34 1.39 2.69 2.11 4-.67-1.31-1.38-2.66-2.06-4Zm3.09 5.9q1.57 2.91 3.24 5.85-1.65-2.94-3.19-5.85Zm3.28 5.92q1.72 3 3.56 6-1.78-2.99-3.51-6Zm7.32 12.1c-1-1.6-2-3.19-3-4.78.87 1.43 1.74 2.86 2.65 4.3Zm2 3c.74 1.14 1.47 2.28 2.23 3.41-.73-1.09-1.46-2.23-2.24-3.37Zm6.68 9.88c-.86-1.22-1.69-2.43-2.52-3.65.83 1.25 1.69 2.47 2.55 3.69Zm4.68 6.49a234.304 234.304 0 0 1 .03.04Zm2 2.64q1.47 2 3 3.93-1.53-1.92-2.99-3.89Zm4.9 6.38c1.08 1.37 2.16 2.75 3.28 4.13-1.11-1.34-2.19-2.72-3.27-4.04Zm5.18 6.46c1.18 1.44 2.36 2.87 3.57 4.31-1.2-1.4-2.38-2.83-3.56-4.27Zm5.36 6.42q1.92 2.25 3.9 4.51-1.97-2.22-3.89-4.47Zm46.45 47.56c1.82 1.64 3.67 3.29 5.53 4.93-1.85-1.6-3.7-3.28-5.52-4.89Zm7.67 6.84q3.87 3.39 7.86 6.79-3.98-3.36-7.85-6.75ZM525 573.52c-34.84-13.68-68.47-28.64-100.6-44.75 32.17 16.11 65.8 31.07 100.6 44.75Zm505.36 88q6.35-.4 12.55-.9-6.17.51-12.51.91Zm25.1-2q-4.43.42-8.92.79 4.54-.31 8.96-.77Zm3.8-.37q4.53-.46 9-1-4.44.56-8.96 1.02Zm12.13-1.31q12.13-1.43 23.75-3.21-11.57 1.81-23.71 3.23Zm25.53-3.49c3.26-.51 6.5-1 9.7-1.59-3.16.57-6.4 1.1-9.62 1.61Zm21.23-3.7c-3 .57-6 1.12-9 1.66 3.09-.52 6.07-1.07 9.04-1.64Zm23.72-5.1q-5.25 1.26-10.65 2.43t-10.76 2.22q11.02-2.14 21.45-4.63Zm.9-.22q4.47-1.08 8.82-2.22-4.31 1.16-8.78 2.24Zm11.67-3q3.38-.9 6.68-1.83-3.26.97-6.64 1.87Zm16.1-4.61c-2 .62-4.07 1.24-6.14 1.84 2.1-.56 4.15-1.18 6.18-1.8Zm3.26-1c2.1-.66 4.15-1.33 6.21-2-2.01.7-4.07 1.38-6.17 2.03Zm66.68-28.52c1.72-1 3.42-2 5.1-3a153.75 153.75 0 0 1-5.06 3.03Zm6.43-3.81q6.35-3.88 12.19-8-5.81 4.14-12.1 8.03Zm13.6-9c1.42-1 2.82-2 4.2-3-1.34 1.02-2.71 2.03-4.16 3.04Zm6-4.44c1.14-.87 2.25-1.75 3.36-2.63-1.03.92-2.15 1.8-3.28 2.68Zm5.22-4.12c1.11-.91 2.19-1.83 3.27-2.75-1 .92-2.08 1.92-3.19 2.79Zm9.45-8.24q-2.22 2.07-4.55 4.11c.18-.17.38-.33.56-.49 1.44-1.16 2.81-2.36 4.07-3.58Zm4.32-4.17q-2.1 2.1-4.3 4.16c1.55-1.34 2.98-2.72 4.38-4.12Zm1.2-1.22c1-1 2-2.06 3-3.1-.92 1.08-1.91 2.12-2.92 3.14Zm4.21-4.43q1.54-1.69 3-3.4c-.91 1.18-1.91 2.31-2.91 3.44Zm3.86-4.36q1.89-2.22 3.68-4.47-1.71 2.29-3.6 4.51Zm4.09-5c1-1.3 2-2.62 3-3.94-.86 1.34-1.86 2.66-2.92 3.96Zm-67 53.53c-2 1-4 2.07-6 3.09 2.05-1.03 4.06-2.03 6.04-3.03Zm1.7-.91q2.58-1.38 5.09-2.79-2.46 1.43-5.05 2.81Zm-16.12 8q3.76-1.74 7.41-3.54-3.61 1.85-7.37 3.59Zm-.73.32q-3.3 1.51-6.7 3 3.45-1.44 6.74-2.95Zm-8.79 3.86c-1.93.82-3.89 1.62-5.87 2.42 2.02-.75 3.95-1.55 5.95-2.37Zm-8.47 3.46q-3.1 1.21-6.29 2.4 3.22-1.13 6.33-2.35Zm-16.08 5.91q3.93-1.35 7.75-2.75c-2.73 1-5.5 2-8.31 2.93Zm-316 23.92q-19.81-2-40-4.8c-32.27-4.41-64.76-10.17-97.25-17.21 32.49 7 65 12.8 97.25 17.22q20.23 2.81 40.04 4.84Zm52.08 4.13q12.82.71 25.44 1.09-12.57-.34-25.4-1.04Zm-52.08-4.13q26.42 2.72 52.08 4.13-25.61-1.37-52.04-4.08Zm-137.25-22q-13.92-3-27.84-6.35 13.96 3.37 27.88 6.39Zm-41.75-9.76q-13.9-3.49-27.78-7.29 13.92 3.84 27.82 7.33ZM218.51 389.31Zm2.38 2.27c1.68 1.58 3.4 3.15 5.12 4.73-1.72-1.58-3.44-3.15-5.12-4.73Zm-14.15-13.75Zm-2-2c-1.57-1.6-3.13-3.21-4.66-4.81 1.53 1.58 3.09 3.19 4.66 4.79Zm-6.6-6.84q-2.25-2.39-4.44-4.75 2.19 2.35 4.44 4.76Zm-10.63-11.6q2.1 2.37 4.27 4.76-2.17-2.4-4.27-4.78Zm-71.38-140.61c-.11-1.15-.2-2.3-.29-3.44.09 1.14.16 2.29.29 3.44Zm.21 1.92c.08.74.15 1.47.24 2.21 0 .29.09.58.12.87-.13-1.03-.25-2.05-.36-3.08Z"/><path class="cls-3" d="M1030.4 661.53c4.19-.26 8.34-.57 12.45-.89-4.11.36-8.26.63-12.45.89Zm25-2c-2.81.27-5.66.52-8.52.76 2.82-.22 5.67-.47 8.48-.74Zm4.07-.4q4.36-.43 8.67-.92-4.34.5-8.71.94Zm12.07-1.3q12.09-1.43 23.66-3.19-11.6 1.79-23.7 3.21Zm25.49-3.49q4.83-.75 9.57-1.56-4.78.83-9.6 1.58Zm21.06-3.67q-4.32.84-8.72 1.62 4.35-.76 8.68-1.6Zm2.52-.48c3.49-.69 7-1.4 10.37-2.14-3.45.76-6.92 1.47-10.41 2.16Zm10.69-2.19q5.34-1.15 10.53-2.4-5.19 1.23-10.53 2.4Zm11.8-2.71q4.29-1 8.49-2.13-4.2 1.09-8.49 2.12Zm11.43-2.92c2.22-.59 4.42-1.2 6.6-1.81-2.13.6-4.38 1.21-6.6 1.8Zm16-4.57q-3 .91-6 1.81l5.96-1.82Zm3.39-1c2.06-.65 4.09-1.31 6.12-2-2.04.63-4.1 1.29-6.16 1.94Zm66.63-28.51c1.68-1 3.33-1.94 5-2.92-1.71.92-3.36 1.9-5.04 2.86Zm6.48-3.83q6.3-3.85 12.11-7.92-5.86 3.99-12.14 7.86Zm13.62-9c1.39-1 2.76-2 4.11-3-1.39.95-2.76 1.94-4.15 2.93Zm6-4.41c1.12-.85 2.23-1.72 3.31-2.58-1.15.79-2.25 1.66-3.37 2.53Zm5.23-4.12c1.08-.89 2.14-1.78 3.19-2.67-1.07.82-2.17 1.74-3.25 2.6Zm9.41-8.2c-1.46 1.37-3 2.72-4.51 4.07l.55-.48c1.29-1.26 2.61-2.45 3.9-3.66Zm4.31-4.16c-1.37 1.36-2.75 2.71-4.18 4 1.37-1.36 2.75-2.71 4.12-4.07Zm1.28-1.3q1.47-1.49 2.88-3-1.47 1.45-2.94 2.93Zm4.19-4.42c1-1.08 2-2.16 2.91-3.26-.98 1.03-1.98 2.11-2.98 3.19Zm3.85-4.35c1.25-1.47 2.48-2.95 3.65-4.44-1.23 1.42-2.46 2.94-3.71 4.37Zm4.05-4.95c1-1.32 2-2.64 3-4-1.03 1.29-2.03 2.61-3.06 3.93ZM1231.85 613Zm1.79-1c1.69-.91 3.37-1.83 5-2.76q-2.45 1.44-5 2.76Zm-16.12 8c2.48-1.15 4.93-2.31 7.33-3.5-2.4 1.25-4.85 2.41-7.33 3.56Zm-1.08.48q-3.14 1.44-6.36 2.82 3.23-1.3 6.36-2.76Zm-8.54 3.75c-1.92.81-3.87 1.61-5.83 2.4 1.93-.73 3.93-1.53 5.83-2.34Zm-8.41 3.43c-2.11.82-4.25 1.64-6.41 2.44 2.16-.74 4.3-1.56 6.41-2.38Zm-16.08 5.91c2.63-.9 5.21-1.82 7.77-2.76-2.74 1-5.53 2-8.35 3Z"/><path class="cls-3" d="M945.55 104.88a1344.8 1344.8 0 0 1 132.19 61.42 1087.32 1087.32 0 0 1 126 78.4c43.76 31.79 84.09 66.94 117.24 104.19 39.1 43.92 69.52 92.26 83.29 142.27 17 61.82 7.09 119.9-33.62 168.93-49.89 60.08-142.93 103.19-275.44 119.2-151.67 18.33-335.91-.83-523.74-60.29-185.75-58.82-345.12-147.64-451.84-252.63C29.12 377.32-5.12 293.88.92 224.28c4.92-56.6 36.43-102.73 83.79-137.57 39.1-28.77 89.31-50.1 145.92-64.26C278.89 10.38 332.78 3.27 390.58 1a1142.79 1142.79 0 0 1 152.05 4.71 1388.25 1388.25 0 0 1 138 20.41c43.8 8.7 88.15 19.62 131.76 32.49s88.44 28.29 133.16 46.27Zm143.63 663.42c70.23-8.09 129.24-23.81 176.63-45.51 43.32-19.83 76.12-44.32 99-72.08 20.69-25.11 33-52.65 37.77-81.65 4.3-26.17 2.44-53.4-4.88-81.1-6.61-25-17.5-49.76-31.79-73.83a438.86 438.86 0 0 0-47.19-64.34 623.24 623.24 0 0 0-56.13-56.14c-19.06-16.9-39.68-33.38-61.59-49.35-20.56-15-41.84-29.21-63.58-42.65-20.65-12.76-41.91-24.94-63.59-36.48q-31.21-16.63-64-31.79-31.72-14.67-65.14-28.11Q912 92.13 879.36 80.78q-32.24-11.22-64.83-20.9T748.88 42q-33.37-8.26-67.82-15.12-35-6.94-69.47-12-35.36-5.22-70.38-8.48C517 4.14 492.79 2.61 468.72 1.86c-25.25-.79-50.6-.73-75.82.29-26.78 1.08-52.85 3.21-77.9 6.44a689.35 689.35 0 0 0-77.61 14.35 498.58 498.58 0 0 0-75.7 25c-25.73 11-49.39 24.19-70.16 39.75-22.92 17.18-41.65 36.75-55.33 58.64a166.35 166.35 0 0 0-25.54 80.78C9 259.77 16.41 295.25 34.3 332.87c19.7 41.35 51.6 84.61 96.81 128.47 48.89 47.43 110.35 92.75 182.77 134.05 75.85 43.27 160.83 80.5 251.59 109.94C656.85 735 750.34 755.49 842 766.11c88.56 10.26 172 10.87 247.22 2.19"/><path class="cls-3" d="m1362.91 669.44-30.49 36.68ZM1331 707.86l-11.54 13.87Zm80.74-174.66a218.32 218.32 0 0 0-7.4-42c-13.77-50-44.19-98.36-83.29-142.28-33.15-37.25-73.48-72.4-117.25-104.19a1086.28 1086.28 0 0 0-126-78.39 1345.89 1345.89 0 0 0-132.19-61.43l-.24.65q33 13.31 64.48 27.86 32.73 15.13 64 31.78 16 8.54 31.72 17.52l.18.1q10.63 6.11 21.09 12.43c.86.52 1.73 1 2.58 1.53s1.68 1.06 2.53 1.57c1.82 1.12 3.67 2.21 5.49 3.33q7.53 4.65 15 9.44l.88.55.18.11q10.62 6.84 21.06 14c.86.59 1.76 1.15 2.62 1.74 1.87 1.28 3.71 2.58 5.56 3.87q2.13 1.45 4.24 2.94 7.08 5 14.08 10.05c21.91 16 42.53 32.44 61.59 49.34a623.24 623.24 0 0 1 56.13 56.14 438.86 438.86 0 0 1 47.19 64.34c14.28 24.07 25.18 48.8 31.79 73.83q1.35 5.13 2.45 10.23c.26 1.2.45 2.39.69 3.58.44 2.19.89 4.38 1.25 6.56.25 1.49.43 3 .64 4.44.28 1.9.58 3.8.8 5.69.18 1.53.29 3 .43 4.57s.35 3.32.46 5v.51c.14 2 .19 4 .25 6.07 0 1.39.14 2.8.15 4.18 0 2 0 4-.09 6.06 0 1.38 0 2.76-.08 4.14-.1 2.11-.29 4.2-.46 6.3-.11 1.26-.16 2.52-.29 3.77-.27 2.56-.64 5.11-1 7.64-.11.77-.18 1.54-.3 2.3a.13.13 0 0 0 0 .06c-.07.45-.17.9-.24 1.35-.23 1.32-.46 2.65-.72 4-.14.7-.3 1.38-.45 2.08-.22 1.06-.44 2.12-.68 3.18-.2.87-.43 1.74-.65 2.6s-.43 1.79-.67 2.68-.49 1.75-.74 2.63-.48 1.73-.74 2.6-.62 2-.94 3c-.24.72-.46 1.45-.71 2.17-.34 1-.71 2-1.07 3-.26.71-.51 1.43-.78 2.15-.36 1-.75 1.94-1.13 2.91-.3.73-.58 1.47-.88 2.2-.41 1-.84 2-1.27 3-.24.54-.46 1.08-.7 1.62-.07.15-.15.3-.21.45-.52 1.13-1 2.25-1.59 3.37-.29.6-.57 1.21-.86 1.8-.55 1.11-1.12 2.21-1.7 3.31-.32.62-.63 1.24-1 1.85-.58 1.08-1.19 2.15-1.79 3.23-.35.61-.69 1.23-1 1.85-.63 1.08-1.29 2.16-2 3.24-.36.6-.71 1.19-1.08 1.79-.66 1-1.34 2.08-2 3.11-.41.63-.81 1.26-1.23 1.88-.68 1-1.39 2-2.1 3-.44.63-.87 1.27-1.33 1.9-.65.91-1.34 1.81-2 2.72-.55.73-1.08 1.46-1.63 2.18-.71.91-1.45 1.82-2.18 2.73-.51.65-1 1.3-1.54 1.94l-.06.08v-.06l-10.18 12.39c-2 4.92-4.11 9.8-6.48 14.61q-2.62 5.34-5.59 10.57a227.19 227.19 0 0 0 27.92-27.92 184.72 184.72 0 0 0 26.3-41.55 169 169 0 0 0 13-42.69 181.54 181.54 0 0 0 1.75-42.88Z"/><path class="cls-3" d="m949 115.65 4.36 1.86-4.46-1.9Zm76.93 25.35-.65-.3-.31-.15Z"/></g></g></g></svg>